<svg id="svg" version="1.1" width="400" height="400" viewBox="0, 0, 400,400" sodipodi:docname="image2vector.svg" inkscape:version="1.4.2 (ebf0e940d0, 2025-05-08)" xmlns:inkscape="http://www.inkscape.org/namespaces/inkscape" xmlns:sodipodi="http://sodipodi.sourceforge.net/DTD/sodipodi-0.dtd" xmlns:xlink="http://www.w3.org/1999/xlink" xmlns="http://www.w3.org/2000/svg" xmlns:svg="http://www.w3.org/2000/svg">
  <defs id="defs1"></defs>
  <sodipodi:namedview id="namedview1" pagecolor="#ffffff" bordercolor="#000000" borderopacity="0.25" inkscape:showpageshadow="2" inkscape:pageopacity="0.0" inkscape:pagecheckerboard="0" inkscape:deskcolor="#d1d1d1" inkscape:zoom="5.6568543" inkscape:cx="144.95689" inkscape:cy="124.71596" inkscape:window-width="1920" inkscape:window-height="1008" inkscape:window-x="1920" inkscape:window-y="0" inkscape:window-maximized="1" inkscape:current-layer="svg"></sodipodi:namedview>
  <g id="svgg">
    <path id="path0" d="M128.122 45.302 C 113.693 47.166,105.870 62.095,113.451 73.300 C 119.209 81.812,131.748 82.513,131.140 74.290 C 130.928 71.424,129.559 70.051,126.401 69.537 C 116.671 67.953,120.468 55.952,130.830 55.536 C 146.285 54.915,162.660 71.133,166.965 91.323 L 167.489 93.780 166.013 94.533 C 150.795 102.296,137.698 124.445,136.823 143.899 L 136.596 148.930 140.023 146.129 C 174.861 117.652,224.981 118.268,260.900 147.615 L 262.620 149.021 262.391 143.163 C 261.676 124.930,250.822 106.013,235.293 95.935 L 231.738 93.628 232.283 91.295 C 237.690 68.115,259.917 49.511,273.633 56.686 C 280.014 60.023,279.584 68.611,272.990 69.537 C 265.009 70.657,266.368 80.480,274.435 79.984 C 290.531 78.995,293.819 55.408,278.913 47.855 C 259.015 37.772,231.378 56.374,222.912 85.547 C 221.795 89.398,222.407 89.222,216.016 87.534 C 204.470 84.485,191.280 84.678,180.661 88.050 C 178.962 88.590,177.549 88.994,177.520 88.949 C 177.491 88.904,176.798 86.773,175.980 84.214 C 169.284 63.274,152.852 47.402,135.742 45.346 C 131.928 44.888,131.353 44.885,128.122 45.302 M71.118 129.620 C 68.379 131.089,67.730 133.919,69.375 137.220 C 80.859 160.269,86.098 168.135,91.992 171.177 C 96.322 173.413,112.983 180.518,113.447 180.327 C 113.678 180.232,114.821 178.248,115.986 175.917 C 117.152 173.587,118.288 171.558,118.512 171.409 C 118.746 171.253,118.510 170.979,117.956 170.763 C 114.591 169.451,97.564 161.886,96.228 161.110 C 93.765 159.679,92.824 158.226,85.743 144.922 C 76.808 128.136,75.817 127.100,71.118 129.620 M323.128 129.536 C 321.603 130.313,320.941 131.407,313.092 146.094 C 305.045 161.153,305.785 160.411,293.689 165.546 C 289.104 167.493,284.349 169.532,283.123 170.077 L 280.894 171.069 283.318 175.761 C 284.651 178.342,285.886 180.457,286.063 180.461 C 286.590 180.474,304.694 172.672,307.216 171.345 C 310.046 169.856,313.934 166.300,315.740 163.550 C 317.609 160.703,330.782 136.186,331.079 135.002 C 332.060 131.095,326.953 127.585,323.128 129.536 M157.930 168.359 C 157.930 169.541,158.003 170.024,158.092 169.434 C 158.182 168.843,158.182 167.876,158.092 167.285 C 158.003 166.694,157.930 167.178,157.930 168.359 M157.938 173.047 C 157.938 174.443,158.008 175.015,158.095 174.316 C 158.182 173.618,158.182 172.476,158.095 171.777 C 158.008 171.079,157.938 171.650,157.938 173.047 M157.919 192.188 C 157.919 193.154,157.995 193.550,158.088 193.066 C 158.181 192.583,158.181 191.792,158.088 191.309 C 157.995 190.825,157.919 191.221,157.919 192.188 M157.969 199.805 C 157.969 203.027,158.030 204.294,158.103 202.619 C 158.177 200.944,158.176 198.307,158.102 196.759 C 158.028 195.212,157.968 196.582,157.969 199.805 M82.031 207.684 C 80.334 207.953,76.428 209.451,74.805 210.454 C 72.903 211.629,52.121 232.191,51.339 233.672 C 49.507 237.139,52.108 241.403,56.055 241.403 C 58.384 241.403,59.102 240.811,69.975 229.938 C 82.593 217.319,80.373 218.379,94.214 218.368 L 105.030 218.359 105.234 216.699 C 105.346 215.786,105.544 213.721,105.674 212.109 C 105.804 210.498,106.006 208.784,106.122 208.301 L 106.335 207.422 94.671 207.475 C 88.256 207.504,82.568 207.598,82.031 207.684 M293.440 210.254 C 293.608 211.812,293.848 214.272,293.974 215.723 L 294.203 218.359 305.012 218.368 C 318.908 218.379,316.641 217.287,329.688 230.251 C 340.733 241.227,340.952 241.407,343.236 241.405 C 346.324 241.402,348.438 239.070,348.438 235.665 L 348.438 233.792 336.816 222.222 C 321.243 206.716,322.783 207.422,304.522 207.422 L 293.135 207.422 293.440 210.254 M100.758 259.900 C 84.469 266.911,84.796 266.421,75.773 297.430 C 69.365 319.455,68.954 321.363,70.170 323.422 C 72.001 326.521,77.082 326.661,79.044 323.665 C 79.399 323.124,82.665 312.639,86.301 300.366 C 94.590 272.394,92.968 275.024,105.078 269.925 C 109.268 268.161,112.731 266.685,112.775 266.645 C 112.857 266.570,109.407 256.542,109.243 256.378 C 109.193 256.328,105.375 257.913,100.758 259.900 M288.522 261.043 C 287.687 263.670,286.936 266.010,286.851 266.242 C 286.766 266.476,290.112 268.121,294.329 269.919 C 306.282 275.016,304.986 272.889,313.332 301.115 C 318.814 319.651,319.894 322.931,320.898 324.089 C 323.952 327.609,329.535 325.832,329.980 321.199 C 330.211 318.793,318.083 277.796,315.769 273.161 C 314.136 269.890,310.973 266.229,308.311 264.526 C 306.901 263.625,290.613 256.217,290.129 256.257 C 290.079 256.262,289.356 258.415,288.522 261.043 " stroke="none" fill="#1e1c22" fill-rule="evenodd" data-index="0" style="opacity: 1; visibility: visible;"></path>
    
    <path id="path2" d="M193.555 125.471 C 180.895 126.195,168.817 129.386,157.422 135.017 C 152.233 137.581,143.750 142.801,143.750 143.429 C 143.750 143.606,143.560 143.750,143.329 143.750 C 140.417 143.750,124.463 161.033,119.710 169.336 C 119.095 170.410,118.489 171.377,118.364 171.484 C 117.935 171.851,115.191 177.344,115.436 177.344 C 115.571 177.344,115.421 177.604,115.103 177.922 C 112.718 180.306,107.532 198.076,106.038 208.984 C 103.771 225.524,107.017 254.940,112.124 264.155 C 112.331 264.528,112.500 265.110,112.500 265.447 C 112.500 265.812,112.683 265.949,112.951 265.783 C 113.220 265.617,113.296 265.675,113.140 265.929 C 112.100 267.611,122.021 286.815,128.818 296.276 C 166.473 348.692,222.737 352.613,263.263 305.644 C 289.853 274.827,300.064 234.730,291.011 196.680 C 288.840 187.550,282.028 170.957,280.772 171.734 C 280.526 171.885,280.460 171.815,280.614 171.566 C 280.892 171.115,276.071 163.718,273.309 160.357 C 256.308 139.675,231.905 126.940,206.658 125.572 C 204.393 125.450,201.748 125.306,200.781 125.254 C 199.814 125.201,196.563 125.299,193.555 125.471 M166.576 158.803 C 169.209 160.053,169.531 161.365,169.531 170.834 L 169.531 179.257 178.704 179.374 L 187.877 179.492 189.110 180.725 C 190.656 182.273,191.125 185.311,190.067 186.926 C 188.523 189.282,187.736 189.450,178.223 189.452 L 169.531 189.453 169.531 197.989 C 169.531 208.725,168.429 210.935,163.334 210.416 C 158.829 209.957,157.777 207.558,157.824 197.852 C 157.844 193.770,157.849 190.219,157.836 189.962 C 157.819 189.618,155.510 189.464,149.054 189.376 C 140.329 189.258,140.292 189.254,139.238 188.281 C 136.437 185.695,136.652 182.050,139.725 180.024 C 140.706 179.378,141.709 179.302,149.316 179.299 C 153.989 179.298,157.826 179.165,157.842 179.004 C 157.858 178.843,157.888 175.254,157.909 171.028 C 157.963 159.733,160.625 155.979,166.576 158.803 M260.567 180.788 C 263.030 183.250,263.085 185.275,260.760 187.812 L 259.435 189.258 238.337 189.258 L 217.239 189.258 216.035 188.105 C 213.584 185.757,213.727 182.588,216.383 180.353 L 217.638 179.297 238.357 179.297 L 259.076 179.297 260.567 180.788 M241.133 228.758 C 247.913 232.192,245.803 241.971,238.281 241.971 C 233.277 241.971,229.885 236.947,231.802 232.372 C 233.283 228.837,237.819 227.080,241.133 228.758 M181.011 235.886 C 183.135 237.086,184.237 240.579,183.161 242.701 C 182.923 243.171,180.255 246.049,177.233 249.097 L 171.737 254.640 177.441 260.460 C 184.469 267.631,185.321 270.313,181.498 273.229 C 178.009 275.890,176.100 275.145,169.537 268.564 C 166.639 265.658,164.103 263.281,163.900 263.281 C 163.697 263.281,161.056 265.720,158.032 268.700 C 153.208 273.452,152.332 274.152,150.902 274.394 C 147.517 274.966,144.141 272.258,144.141 268.971 C 144.141 266.835,144.523 266.308,150.285 260.494 C 153.188 257.565,155.498 254.989,155.419 254.770 C 155.339 254.551,152.932 251.961,150.070 249.015 C 144.775 243.563,144.141 242.658,144.141 240.561 C 144.141 237.385,146.564 235.156,150.016 235.156 L 152.088 235.156 157.678 240.699 C 160.753 243.747,163.511 246.277,163.808 246.321 C 164.104 246.364,166.456 244.265,169.035 241.657 C 175.052 235.568,175.122 235.509,176.644 235.160 C 178.180 234.808,179.485 235.025,181.011 235.886 M259.647 249.592 C 263.283 251.809,263.296 256.386,259.672 258.596 C 257.709 259.792,218.876 259.806,216.916 258.611 C 213.394 256.464,213.425 251.721,216.975 249.556 C 218.861 248.406,257.755 248.439,259.647 249.592 M241.378 267.090 C 247.939 270.436,245.639 280.078,238.281 280.078 C 233.330 280.078,229.951 275.353,231.667 270.826 C 233.076 267.106,237.825 265.279,241.378 267.090 " stroke="none" fill="#7b4cd0" fill-rule="evenodd" data-index="2" style="opacity: 1; visibility: visible; fill: rgb(121, 40, 202);"></path>
    <path id="path3" d="M159.375 57.153 C 159.375 57.221,159.946 57.792,160.645 58.423 L 161.914 59.570 160.767 58.301 C 159.697 57.117,159.375 56.852,159.375 57.153 M151.563 64.185 C 151.563 64.252,152.134 64.823,152.832 65.454 L 154.102 66.602 152.954 65.332 C 151.885 64.149,151.563 63.883,151.563 64.185 M243.750 102.930 C 244.479 103.682,245.163 104.297,245.270 104.297 C 245.378 104.297,244.869 103.682,244.141 102.930 C 243.412 102.178,242.728 101.563,242.620 101.563 C 242.513 101.563,243.021 102.178,243.750 102.930 M262.628 146.289 C 262.630 147.793,262.701 148.360,262.785 147.550 C 262.870 146.739,262.868 145.509,262.782 144.816 C 262.696 144.122,262.626 144.785,262.628 146.289 M76.563 223.242 C 74.962 224.854,73.740 226.172,73.848 226.172 C 73.955 226.172,75.353 224.854,76.953 223.242 C 78.554 221.631,79.775 220.313,79.668 220.313 C 79.561 220.313,78.163 221.631,76.563 223.242 M329.297 230.273 C 334.772 235.752,339.340 240.234,339.447 240.234 C 339.555 240.234,335.163 235.752,329.688 230.273 C 324.212 224.795,319.644 220.313,319.537 220.313 C 319.430 220.313,323.822 224.795,329.297 230.273 M293.856 230.469 C 293.856 231.436,293.933 231.831,294.026 231.348 C 294.119 230.864,294.119 230.073,294.026 229.590 C 293.933 229.106,293.856 229.502,293.856 230.469 M62.296 237.598 L 59.180 240.820 62.402 237.704 C 64.175 235.991,65.625 234.541,65.625 234.482 C 65.625 234.197,65.189 234.605,62.296 237.598 " stroke="none" fill="#928b9e" fill-rule="evenodd" data-index="3"></path>
    <path id="path4" d="M330.078 215.430 C 330.807 216.182,331.491 216.797,331.599 216.797 C 331.706 216.797,331.198 216.182,330.469 215.430 C 329.740 214.678,329.056 214.063,328.948 214.063 C 328.841 214.063,329.349 214.678,330.078 215.430 M333.577 218.848 C 334.535 219.868,335.370 220.703,335.433 220.703 C 335.726 220.703,335.416 220.352,333.691 218.734 L 331.836 216.992 333.577 218.848 M153.320 252.344 C 154.596 253.633,155.727 254.688,155.835 254.688 C 155.942 254.688,154.987 253.633,153.711 252.344 C 152.435 251.055,151.304 250.000,151.196 250.000 C 151.089 250.000,152.045 251.055,153.320 252.344 M176.758 260.156 C 179.760 263.164,182.304 265.625,182.411 265.625 C 182.519 265.625,180.150 263.164,177.148 260.156 C 174.146 257.148,171.602 254.688,171.495 254.688 C 171.387 254.688,173.756 257.148,176.758 260.156 M157.422 268.945 C 155.821 270.557,154.600 271.875,154.707 271.875 C 154.814 271.875,156.212 270.557,157.813 268.945 C 159.413 267.334,160.635 266.016,160.527 266.016 C 160.420 266.016,159.022 267.334,157.422 268.945 " stroke="none" fill="#b19adb" fill-rule="evenodd" data-index="4" style="opacity: 1;"></path>
  </g>
  <path style="fill:#7b4cd0;fill-opacity:1;stroke-width:0.0110624" d="m 160.49842,133.49234 c 0,-0.0642 5.1e-4,-0.0652 0.0415,-0.0848 0.20486,-0.0981 1.31799,-0.58626 1.91102,-0.83808 6.13048,-2.60318 12.50857,-4.53178 19.07153,-5.76683 0.85642,-0.16116 1.62672,-0.29476 2.70199,-0.46862 l 0.0581,-0.009 v 0.0647 c 0,0.0356 -0.002,0.0647 -0.005,0.0647 -0.0129,0 -0.86119,0.13839 -1.15627,0.18863 -7.0767,1.20499 -13.93965,3.21335 -20.58202,6.0231 -0.54778,0.23172 -1.97618,0.8551 -2.03224,0.88691 -0.005,0.003 -0.008,-0.0245 -0.008,-0.0603 z" id="path5" data-index="5"></path>
  <path style="fill:#7b4cd0;fill-opacity:1;stroke-width:0.00390625" d="m 153.4794,137.03455 0.001,-0.0709 0.24023,-0.13348 c 2.02869,-1.12715 4.08591,-2.17104 6.18946,-3.14068 0.27397,-0.12629 0.60178,-0.27542 0.60541,-0.27542 0.001,0 -0.002,0.006 -0.008,0.0123 -0.0103,0.0123 -0.0104,0.0126 -0.009,0.069 9.3e-4,0.0424 0.003,0.0571 0.006,0.0584 0.003,9.4e-4 -0.11759,0.0575 -0.26758,0.12572 -1.38198,0.62846 -2.73897,1.28392 -3.88013,1.87422 -0.79703,0.41228 -1.63939,0.86527 -2.55965,1.37647 -0.17352,0.0964 -0.31639,0.17526 -0.31747,0.17526 -0.001,0 -0.001,-0.0319 -9e-4,-0.0709 z" id="path6" data-index="6"></path>
  <path style="fill:#7b4cd0;fill-opacity:1;stroke-width:0.015625" d="m 147.45391,140.65824 c 0.0465,-0.0427 1.14441,-0.75595 1.84163,-1.19639 0.80041,-0.50561 1.87729,-1.15932 2.73571,-1.66068 0.44722,-0.2612 1.38962,-0.79877 1.42225,-0.81129 0.0179,-0.007 0.0231,0.005 0.0231,0.0514 l -1e-5,0.0603 -0.20703,0.11586 c -1.6845,0.94268 -3.88049,2.24514 -5.49883,3.2614 -0.2727,0.17125 -0.36446,0.22322 -0.31678,0.17942 z" id="path7" data-index="7"></path>
  <path style="fill:#7b4cd0;fill-opacity:1;stroke-width:0.0110485" d="m 143.035,143.77595 c 0.0336,-0.0313 1.07363,-0.79675 1.08262,-0.79675 0.004,0 -0.0573,0.062 -0.13599,0.13775 -0.17179,0.1655 -0.22294,0.23504 -0.2365,0.32153 -0.0123,0.0784 -0.0399,0.13202 -0.0938,0.18258 -0.0897,0.0841 -0.17526,0.11458 -0.35173,0.12542 -0.0608,0.004 -0.14032,0.0139 -0.17678,0.0226 -0.0782,0.0187 -0.10257,0.0206 -0.0878,0.007 z" id="path8" data-index="8"></path>
  <path style="fill:#7b4cd0;fill-opacity:1;stroke-width:0.00390625" d="m 146.25195,141.45921 c 0,-0.002 0.15756,-0.10967 0.43946,-0.30164 0.32367,-0.22043 0.92308,-0.62056 0.9257,-0.61794 0.001,0.001 -0.0315,0.0244 -0.0722,0.052 -0.0759,0.0513 -0.10543,0.074 -0.10543,0.0808 0,0.002 0.004,0.003 0.009,0.001 0.0125,-0.004 0.0864,-0.0461 0.16785,-0.0963 0.0384,-0.0237 0.0707,-0.0423 0.0717,-0.0413 9.8e-4,9.8e-4 -0.0382,0.027 -0.0871,0.0578 -0.37795,0.23804 -0.91501,0.58348 -1.23469,0.79416 -0.0608,0.0401 -0.11137,0.0729 -0.1123,0.0729 -9.3e-4,0 -0.002,-7.8e-4 -0.002,-0.002 z" id="path9" data-index="9"></path>
  <path style="fill:#7b4cd0;fill-opacity:1;stroke-width:0.00390625" d="m 147.7693,140.4823 c 0.004,-0.003 0.009,-0.006 0.0117,-0.006 0.002,7e-5 7.2e-4,0.003 -0.003,0.006 -0.004,0.003 -0.009,0.006 -0.0117,0.006 -0.002,-7e-5 -7.2e-4,-0.003 0.003,-0.006 z" id="path10" data-index="10"></path>
  <path style="fill: rgb(121, 40, 202); fill-opacity: 1; opacity: 1; visibility: visible; stroke: rgb(121, 40, 202);" d="m 143.69363,143.59143 c 0.0362,-0.0478 0.0522,-0.0893 0.0579,-0.14952 0.006,-0.0596 0.0263,-0.0982 0.0964,-0.17958 0.30777,-0.35771 1.35344,-1.11895 2.98515,-2.17316 1.05248,-0.68 2.3554,-1.48317 3.64548,-2.24723 0.0934,-0.0554 0.17563,-0.10409 0.18261,-0.10832 l 0.0127,-0.008 v 2.44563 2.44563 h -3.49985 -3.49984 z" id="path11" data-index="11"></path>
  <path style="fill:#7b4cd0;fill-opacity:1;stroke-width:0.00390625" d="" id="path12" data-index="12"></path>
  <path style="fill:#7b4cd0;fill-opacity:1;stroke-width:0.00390625" d="m 147.87891,140.41406 c 0.001,-0.002 0.004,-0.004 0.006,-0.004 0.002,0 0.003,0.002 0.001,0.004 -0.001,0.002 -0.004,0.004 -0.006,0.004 -0.002,0 -0.003,-0.002 -0.001,-0.004 z" id="path13" data-index="13"></path>
  <path style="fill:#7b4cd0;fill-opacity:1;stroke-width:0.00390625" d="" id="path14" data-index="14"></path>
  <path style="fill:#7b4cd0;fill-opacity:1;stroke-width:0.00390625" d="m 147.4668,140.65203 c 0.0267,-0.0229 0.37981,-0.25611 0.78906,-0.52116 0.85258,-0.55217 1.44578,-0.92554 2.21875,-1.39649 0.0999,-0.0609 0.1856,-0.11322 0.19043,-0.11633 l 0.009,-0.006 -1e-4,0.0503 -9e-5,0.0502 -0.0341,0.0199 c -0.20839,0.12192 -0.98684,0.58779 -1.34073,0.80238 -0.55084,0.334 -0.84535,0.51509 -1.41016,0.86709 -0.16435,0.10242 -0.32109,0.1996 -0.34831,0.21594 -0.0762,0.0458 -0.10062,0.057 -0.0736,0.0338 z" id="path15" data-index="15"></path>
  <path style="fill:#7b4cd0;fill-opacity:1;stroke-width:0.00390625" d="m 209,125.73014 c -0.30057,-0.0258 -0.90406,-0.0708 -1.30273,-0.0972 -0.56423,-0.0374 -0.5683,-0.0376 -2.69336,-0.15245 -0.67461,-0.0365 -1.64097,-0.0887 -2.14746,-0.11611 l -0.9209,-0.0498 v -0.042 -0.0419 l 0.0361,0.002 c 0.0199,0.001 0.0924,0.004 0.16113,0.006 1.44983,0.0465 3.15976,0.14752 4.72852,0.27932 0.71385,0.06 1.77265,0.16183 2.24609,0.21608 0.0947,0.0108 0.0403,0.009 -0.10742,-0.004 z" id="path16" data-index="16"></path>
  <path style="fill:#7b4cd0;fill-opacity:1;stroke-width:0.00390625" d="m 193.48242,125.4043 v -0.0684 l 0.0166,-3e-5 c 0.009,-1e-5 0.0772,-0.003 0.15137,-0.008 0.33704,-0.0192 0.95809,-0.0494 1.32813,-0.0645 0.27911,-0.0114 0.44643,-0.0177 0.67382,-0.0253 0.12676,-0.004 0.2586,-0.009 0.29297,-0.01 0.22416,-0.008 0.81914,-0.0226 1.18164,-0.0293 0.54742,-0.0102 0.75609,-0.0122 1.47461,-0.0143 0.91979,-0.003 1.51648,0.002 2.34375,0.0203 0.37662,0.008 0.81803,0.0199 0.8916,0.0238 l 0.044,0.002 v 0.0407 0.0406 l -0.0264,-0.002 c -0.0433,-0.004 -1.09888,-0.0598 -1.22363,-0.0652 -0.15137,-0.007 -1.11957,-0.006 -1.43555,1.2e-4 -1.74591,0.0363 -3.53736,0.10631 -5.42094,0.21174 -0.15297,0.009 -0.28124,0.0156 -0.28504,0.0156 -0.006,0 -0.007,-0.006 -0.007,-0.0684 z" id="path17" data-index="17"></path>
  <path style="fill:#7b4cd0;fill-opacity:1;stroke-width:0.0220971" d="m 184.30075,126.38529 c 0,-0.0608 -0.0318,-0.0516 0.41985,-0.12169 1.35863,-0.21092 3.33979,-0.45896 4.9387,-0.61832 1.12983,-0.11261 3.38693,-0.28824 3.70678,-0.28844 0.0973,-6e-5 0.10496,0.004 0.10496,0.0552 0,0.0382 -0.0121,0.0552 -0.0393,0.0552 -0.0216,0 -0.33734,0.0198 -0.70158,0.0439 -2.60467,0.17267 -5.44057,0.47733 -7.81015,0.83906 -0.32178,0.0491 -0.59274,0.0893 -0.60214,0.0893 -0.009,0 -0.0171,-0.0244 -0.0171,-0.0542 z" id="path18" data-index="18"></path>
  <path style="fill:#7b4cd0;fill-opacity:1;stroke-width:0.00552427" d="m 158.03083,203.30563 c -0.0185,-0.13084 -0.0335,-0.53925 -0.0452,-1.22501 -0.0162,-0.95633 -0.0163,-3.66136 -4e-5,-4.62381 0.007,-0.39193 0.0169,-0.82049 0.0198,-0.83003 0.001,-0.005 0.0153,-0.007 0.0433,-0.007 h 0.0412 l 0.003,0.0345 c 0.004,0.039 0.0167,0.3408 0.025,0.58143 0.0485,1.40173 0.0485,3.45707 5e-5,4.90279 -0.0249,0.74281 -0.0546,1.20981 -0.0769,1.20981 -0.002,0 -0.007,-0.0193 -0.0105,-0.0428 z" id="path19" data-index="19"></path>
  <path style="fill:#7b4cd0;fill-opacity:1;stroke-width:0.00552427" d="m 158.03332,203.83043 c -0.0121,-0.0955 -0.0515,-0.54806 -0.072,-0.82725 -0.1073,-1.45792 -0.14547,-3.04832 -0.13297,-5.53947 l 0.004,-0.84383 0.0836,-1e-5 h 0.0836 l -0.004,0.11463 c -0.0192,0.59792 -0.0275,1.50853 -0.0275,3.02593 -2e-5,1.57924 0.008,2.42158 0.0286,3.05492 0.0142,0.43541 0.0307,0.59443 0.0549,0.53068 0.0119,-0.0313 0.0297,-0.24532 0.0442,-0.53068 0.0729,-1.43784 0.0851,-3.9145 0.0276,-5.57951 -0.008,-0.24063 -0.0213,-0.54244 -0.025,-0.58143 l -0.003,-0.0345 h 0.0522 0.0522 l 0.003,1.24434 c 0.003,1.16755 0.006,1.51906 0.0203,2.19176 0.0297,1.42063 0.0936,2.70155 0.18244,3.65678 0.006,0.0652 0.011,0.1242 0.011,0.1312 v 0.0127 h -0.19007 -0.19007 z" id="path20" data-index="20"></path>
  <path style="fill:#7b4cd0;fill-opacity:1;stroke-width:0.00552427" d="m 158.38144,206.05672 c -0.007,-0.0242 -0.0512,-0.22894 -0.0807,-0.37704 -0.0794,-0.3984 -0.14541,-0.8141 -0.20406,-1.28439 -0.018,-0.14464 -0.0611,-0.52188 -0.0611,-0.53524 0,-0.002 0.0863,-0.003 0.19184,-0.002 l 0.19184,0.001 0.0125,0.12706 c 0.0709,0.71827 0.18071,1.48733 0.28586,2.00192 0.008,0.0376 0.014,0.0706 0.014,0.0732 0,0.003 -0.0781,0.005 -0.17364,0.005 -0.16057,0 -0.17386,-7.2e-4 -0.17658,-0.01 z" id="path21" data-index="21"></path>
  <path style="fill:#7b4cd0;fill-opacity:1;stroke-width:0.03125" d="m 159.79261,208.97497 c -0.43872,-0.46167 -0.75434,-0.97971 -1.02707,-1.6858 -0.12662,-0.32781 -0.34367,-1.05173 -0.34367,-1.14624 0,-0.0352 0.0305,-0.0492 0.10682,-0.0492 0.0587,0 0.12585,-0.007 0.1491,-0.0162 0.0315,-0.0121 0.0645,0.0811 0.12963,0.36718 0.24402,1.07102 0.68454,2.06668 1.16857,2.64123 0.21994,0.26106 0.10281,0.19018 -0.18338,-0.11097 z" id="path22" data-index="22"></path>
  <path style="fill:#7b4cd0;fill-opacity:1;stroke-width:0.00390625" d="m 158.89209,207.6416 c -0.14195,-0.31514 -0.28795,-0.73059 -0.39776,-1.13183 -0.0252,-0.0919 -0.0924,-0.35684 -0.10655,-0.41993 l -0.006,-0.0254 0.17615,8.9e-4 0.17614,8.9e-4 0.007,0.0362 c 0.0137,0.0698 0.0659,0.30298 0.0947,0.42294 0.0457,0.19031 0.10755,0.41858 0.15645,0.57753 0.0118,0.0383 0.0208,0.0716 0.0201,0.0738 -0.002,0.005 -0.0419,-0.12396 -0.0787,-0.25093 -0.0415,-0.14341 -0.078,-0.28415 -0.12194,-0.47041 -0.0742,-0.31432 -0.0997,-0.38713 -0.1334,-0.37968 -0.0402,0.009 -0.0588,0.0111 -0.13405,0.0157 -0.0949,0.006 -0.10919,0.01 -0.11997,0.0323 -0.005,0.0114 -0.006,0.0174 -0.002,0.0454 0.0192,0.13244 0.18831,0.70071 0.30429,1.02223 0.0389,0.10796 0.10681,0.27746 0.15693,0.39198 0.0196,0.0448 0.0357,0.0821 0.0357,0.083 0,8.6e-4 -0.004,0.002 -0.008,0.002 -0.006,0 -0.0108,-0.006 -0.0199,-0.0264 z" id="path23" data-index="23"></path>
  <path style="fill:#7b4cd0;fill-opacity:1;stroke-width:0.00390625" d="m 160.31374,209.4554 c -0.20208,-0.14471 -0.36161,-0.28278 -0.54233,-0.46936 -0.23213,-0.23965 -0.464,-0.55541 -0.6452,-0.87862 -0.0802,-0.14305 -0.21302,-0.40785 -0.21522,-0.42907 -4.7e-4,-0.005 0.002,-0.009 0.005,-0.009 0.004,-8.8e-4 0.0121,0.0122 0.027,0.0448 0.0116,0.0253 0.0453,0.0943 0.075,0.15343 0.20075,0.40059 0.42962,0.73546 0.7181,1.05069 0.0647,0.0707 0.21808,0.22522 0.26502,0.267 0.0387,0.0344 0.0797,0.0651 0.0871,0.0651 0.0127,0 -0.0163,-0.0511 -0.0561,-0.0988 -0.0268,-0.0321 -0.0134,-0.0241 0.0165,0.01 0.0947,0.1076 0.16551,0.17888 0.32807,0.33004 0.01,0.009 0.016,0.0165 0.0139,0.0165 -0.002,1e-5 -0.0367,-0.0235 -0.0769,-0.0523 z" id="path24" data-index="24"></path>
  <path style="fill:#7b4cd0;fill-opacity:1;stroke-width:0.00390625" d="m 157.83147,196.49902 c 0.001,-0.065 0.004,-0.55805 0.005,-1.0957 l 0.003,-0.97754 h 0.18109 0.18108 v 1.0957 1.09571 h -0.0522 -0.0522 l -0.003,-0.0478 c -0.0125,-0.22654 -0.0297,-0.40769 -0.0417,-0.43926 -0.004,-0.0111 -0.01,-0.0115 -0.0154,-0.001 -0.0104,0.0195 -0.0233,0.17011 -0.0317,0.37194 l -0.005,0.11621 h -0.0858 -0.0857 z" id="path25" data-index="25"></path>
  <path style="fill:#7b4cd0;fill-opacity:1;stroke-width:0.00390625" d="m 158.00587,196.59326 c 2e-5,-0.0405 0.007,-0.18091 0.0138,-0.28402 0.006,-0.0899 0.0142,-0.15937 0.0208,-0.17644 l 0.004,-0.01 0.005,0.0116 c 0.0124,0.0316 0.0286,0.20127 0.0415,0.43469 l 0.003,0.0478 h -0.0313 c -0.0172,0 -0.0368,10e-4 -0.0435,0.002 l -0.0122,0.002 z" id="path26" data-index="26"></path>
  <path style="fill:#7b4cd0;fill-opacity:1;stroke-width:0.00390625" d="m 157.84055,194.12402 c 7e-4,-0.16596 0.002,-0.79878 0.004,-1.40625 l 0.002,-1.10449 h 0.0411 0.0411 l -0.003,0.0518 c -0.011,0.22419 -0.0121,0.68216 -0.002,0.97363 0.0134,0.40286 0.0442,0.62912 0.0862,0.634 0.0213,0.002 0.0378,-0.0301 0.0601,-0.11837 0.056,-0.22211 0.0879,-0.57257 0.0879,-0.96675 -1e-5,-0.20542 -0.006,-0.34691 -0.0221,-0.544 l -0.003,-0.0303 h 0.0338 0.0338 v 1.40625 1.40625 h -0.18095 -0.18095 z" id="path27" data-index="27"></path>
  <path style="fill:#7b4cd0;fill-opacity:1;stroke-width:0.00390625" d="m 158.00308,193.26484 c -0.0373,-0.0467 -0.0614,-0.24763 -0.076,-0.63398 -0.006,-0.16157 -0.006,-0.72073 -2e-5,-0.88477 0.0157,-0.42341 0.0449,-0.63867 0.0866,-0.63867 0.036,0 0.0856,0.2181 0.11497,0.50586 0.0297,0.29037 0.0343,0.69396 0.0117,1.00977 -0.0133,0.18507 -0.0376,0.37044 -0.0644,0.49104 -0.0252,0.11323 -0.0545,0.17383 -0.0729,0.15075 z" id="path28" data-index="28"></path>
  <path style="fill:#7b4cd0;fill-opacity:1;stroke-width:0.00390625" d="m 157.84543,191.14551 c -1.6e-4,-0.25728 -0.002,-0.63037 -0.003,-0.8291 -0.003,-0.39549 -0.002,-0.3782 -0.0269,-0.4093 -0.0157,-0.0198 -0.0626,-0.0522 -0.10122,-0.0698 -0.30317,-0.13874 -1.11858,-0.23522 -2.61822,-0.30982 -0.48298,-0.024 -0.96331,-0.0425 -1.76953,-0.0682 -0.13464,-0.004 0.21663,-0.005 2.3584,-0.006 l 2.5166,-5.5e-4 v 1.08008 1.08008 h -0.0344 -0.0344 l -0.005,-0.0486 c -0.0148,-0.14967 -0.0521,-0.34736 -0.0786,-0.41726 -0.0182,-0.048 -0.0407,-0.0587 -0.0578,-0.0275 -0.0233,0.0424 -0.048,0.21563 -0.0574,0.40359 -0.001,0.0247 -0.003,0.055 -0.004,0.0674 l -0.002,0.0225 h -0.0406 -0.0406 z" id="path29" data-index="29"></path>
  <path style="fill:#7b4cd0;fill-opacity:1;stroke-width:0.00390625" d="m 158.01386,174.59803 c -0.0314,-0.0615 -0.0536,-0.34683 -0.0673,-0.86366 -0.006,-0.23962 -0.006,-1.13537 0,-1.375 0.0151,-0.57027 0.0414,-0.86672 0.0779,-0.87806 0.0134,-0.004 0.0359,0.0752 0.0535,0.18861 0.078,0.50483 0.10249,1.44752 0.0567,2.18164 -0.0218,0.35038 -0.0615,0.66268 -0.0937,0.73749 -0.0111,0.0258 -0.0174,0.0279 -0.0271,0.009 z" id="path30" data-index="30"></path>
  <path style="fill:#7b4cd0;fill-opacity:1;stroke-width:0.00390625" d="m 157.8848,175.29395 c 2e-5,-0.0188 0.002,-0.26006 0.004,-0.53614 0.004,-0.56682 0.0136,-2.11201 0.0194,-3.21679 0.004,-0.76409 0.006,-1.04142 0.0104,-1.22364 l 0.002,-0.10644 h 0.18183 0.18183 l -0.002,0.13965 c -0.001,0.0768 -0.0166,1.20839 -0.034,2.51464 -0.0174,1.30625 -0.0326,2.39478 -0.0338,2.41895 l -0.002,0.0439 h -0.16368 -0.16367 z m 0.15201,-0.68704 c 0.0361,-0.046 0.0827,-0.40908 0.10566,-0.82371 0.0399,-0.72139 0.0161,-1.59388 -0.0569,-2.08984 -0.022,-0.14945 -0.0414,-0.2168 -0.0623,-0.2168 -0.0172,0 -0.0358,0.0825 -0.0485,0.21485 -0.0128,0.13286 -0.0242,0.37096 -0.032,0.66796 -0.006,0.23735 -0.006,1.13949 -4e-5,1.37305 0.0164,0.60992 0.0422,0.88378 0.0834,0.88471 0.001,3e-5 0.006,-0.005 0.0107,-0.0102 z" id="path31" data-index="31"></path>
  <path style="fill:#7b4cd0;fill-opacity:1;stroke-width:0.00390625" d="m 157.86264,177.89355 c 0.006,-0.54298 0.0221,-2.41753 0.0221,-2.52418 v -0.0412 h 0.16406 0.16406 l -3e-5,0.0576 c -1e-5,0.0317 -0.008,0.6333 -0.0175,1.33692 -0.01,0.70361 -0.0175,1.31049 -0.0175,1.34863 l -3e-5,0.0693 h -0.15884 -0.15884 z" id="path32" data-index="32"></path>
  <path style="fill:#7b4cd0;fill-opacity:1;stroke-width:0.00390625" d="m 152.86523,179.28516 c 0,-0.006 0.001,-0.0117 0.003,-0.0117 0.0739,-2.4e-4 0.9022,-0.0171 1.25293,-0.0255 2.13296,-0.0511 3.4966,-0.13229 3.69476,-0.21995 0.0303,-0.0134 0.0289,-0.005 0.0334,-0.20377 0.002,-0.0978 0.005,-0.27705 0.006,-0.39844 0.001,-0.12139 0.003,-0.2352 0.004,-0.25293 l 0.002,-0.0322 h 0.15688 0.15688 l -0.001,0.0732 c -0.006,0.4446 -0.0127,0.9511 -0.0127,1.00976 l 2e-5,0.0732 h -2.64844 -2.64844 z" id="path33" data-index="33"></path>
  <path style="fill:#7b4cd0;fill-opacity:1;stroke-width:0.00390625" d="m 157.91995,170.18262 c 1.4e-4,-0.15582 0.0248,-1.03732 0.0267,-0.9541 0.002,0.0726 0.0164,0.24163 0.0281,0.32259 0.0135,0.0934 0.0267,0.13279 0.0457,0.13563 0.0451,0.007 0.10401,-0.37454 0.12786,-0.82737 0.006,-0.12318 0.0137,-0.36649 0.0138,-0.46191 l 2e-5,-0.0615 h 0.0766 0.0766 l -0.002,0.0889 c -0.004,0.12857 -0.0186,1.04432 -0.0237,1.44629 -10e-4,0.0913 -0.003,0.20513 -0.004,0.25293 l -0.002,0.0869 h -0.1812 -0.18121 z" id="path34" data-index="34"></path>
  <path style="fill:#7b4cd0;fill-opacity:1;stroke-width:0.00390625" d="m 158.01243,169.67656 c -0.0311,-0.0344 -0.0631,-0.31273 -0.0627,-0.5457 4.1e-4,-0.22354 0.0382,-1.00846 0.0758,-1.57422 0.0144,-0.21737 0.0307,-0.43639 0.0325,-0.43817 7.3e-4,-7.4e-4 0.007,0.0272 0.0136,0.0622 0.0963,0.49979 0.11404,1.44202 0.0394,2.09281 -0.0231,0.20126 -0.0539,0.35903 -0.0776,0.39746 -0.009,0.0146 -0.0121,0.0154 -0.0209,0.006 z" id="path35" data-index="35"></path>
  <path style="fill:#7b4cd0;fill-opacity:1;stroke-width:0.00390625" d="m 158.16209,168.29785 c -8e-5,-0.14172 -0.0135,-0.47105 -0.0254,-0.62402 -0.0169,-0.21718 -0.048,-0.45408 -0.0716,-0.54636 -0.007,-0.0278 -0.007,-0.0282 0.006,-0.18802 0.037,-0.45763 0.10219,-1.10535 0.14055,-1.39746 l 0.002,-0.0186 h 0.0899 0.0899 l -0.003,0.0615 c -0.0182,0.43143 -0.0371,1.01329 -0.0512,1.57715 -0.01,0.38589 -0.0254,1.09911 -0.0255,1.15332 l -2e-5,0.0205 h -0.0762 -0.0762 z" id="path36" data-index="36"></path>
  <path style="fill:#7b4cd0;fill-opacity:1;stroke-width:0.00390625" d="m 158.21466,165.51074 c 0.001,-0.007 0.008,-0.0619 0.0159,-0.12207 0.0673,-0.53258 0.15192,-1.07456 0.23849,-1.52734 0.0119,-0.0623 0.0254,-0.13304 0.0299,-0.15719 0.005,-0.0241 0.009,-0.0433 0.01,-0.0425 7.6e-4,7.6e-4 -0.003,0.0522 -0.008,0.11422 -0.0381,0.44137 -0.0756,1.03986 -0.0979,1.56204 -0.003,0.0795 -0.007,0.15376 -0.008,0.16504 l -0.002,0.0205 h -0.0897 -0.0897 z" id="path37" data-index="37"></path>
  <path style="fill:#7b4cd0;fill-opacity:1;stroke-width:0.0110485" d="m 169.08767,162.03259 c -0.0282,-0.15017 -0.15459,-0.55315 -0.24094,-0.76805 -0.31023,-0.77207 -0.77285,-1.31882 -1.67539,-1.98008 -0.55087,-0.4036 -1.23051,-0.68076 -2.05086,-0.83635 -0.4108,-0.0779 -0.73601,-0.11087 -1.17667,-0.11923 -0.67676,-0.0128 -1.25899,0.0581 -1.82386,0.22222 -0.2867,0.0833 -0.44757,0.14747 -0.75224,0.30005 -0.491,0.24588 -0.94328,0.51164 -1.21302,0.71275 -0.0793,0.0591 -0.14416,0.10489 -0.14416,0.10172 0,-0.0133 0.17203,-0.23994 0.28326,-0.37324 0.39773,-0.47668 0.87381,-0.84392 1.38771,-1.07046 0.34958,-0.15411 0.71962,-0.24954 1.14641,-0.29567 0.16323,-0.0176 0.64856,-0.0177 0.83416,-1e-4 0.92314,0.0875 1.93534,0.40279 3.03835,0.94635 0.32997,0.1626 0.51587,0.26731 0.74578,0.42004 0.73525,0.48843 1.16127,1.07162 1.4626,2.00219 0.0856,0.26435 0.21198,0.77635 0.19164,0.77635 -0.003,0 -0.009,-0.0173 -0.0128,-0.0385 z" id="path38" data-index="38"></path>
  <path style="fill:#7b4cd0;fill-opacity:1;stroke-width:0.00390625" d="m 188.67187,180.3239 c -0.26965,-0.13344 -0.66598,-0.27707 -1.06118,-0.38456 -0.81975,-0.22298 -1.82201,-0.37285 -3.2103,-0.48003 l -0.11914,-0.009 0.0742,-4.3e-4 c 0.0408,-2.4e-4 0.75098,0.008 1.57812,0.019 0.82715,0.0107 1.60263,0.0206 1.7233,0.0221 l 0.21939,0.003 0.42904,0.42906 c 0.23597,0.23598 0.42729,0.42892 0.42514,0.42875 -0.002,-1.7e-4 -0.0285,-0.0125 -0.0586,-0.0274 z" id="path39" data-index="39"></path>
  <path style="fill:#7b4cd0;fill-opacity:1;stroke-width:0.00390625" d="m 181.47461,189.42482 v -0.0132 l 0.15918,-0.005 c 1.05622,-0.0314 2.0397,-0.0862 2.85449,-0.15906 2.13787,-0.19108 3.55132,-0.5363 4.47656,-1.09337 0.0785,-0.0473 0.23565,-0.15252 0.30256,-0.20264 0.0332,-0.0249 0.0611,-0.0445 0.0621,-0.0435 0.005,0.005 -0.16548,0.17616 -0.25446,0.2569 -0.63379,0.5751 -1.45186,0.87831 -2.83673,1.05139 -0.75029,0.0938 -1.60351,0.14821 -2.94336,0.1878 -0.28473,0.008 -0.85035,0.0197 -1.25781,0.0252 -0.16221,0.002 -0.35513,0.005 -0.42871,0.006 l -0.13379,0.002 z" id="path40" data-index="40"></path>
  <path style="fill:#7b4cd0;fill-opacity:1;stroke-width:0.0110485" d="m 114.66731,178.45159 c 0,-0.005 0.0763,-0.14883 0.16965,-0.31986 0.27969,-0.51265 0.44326,-0.82068 0.71951,-1.35503 0.2021,-0.39092 0.20771,-0.39441 0.056,-0.0349 -0.16991,0.40268 -0.2283,0.60938 -0.17214,0.60938 0.0334,0 0.0447,0.0323 0.0282,0.0803 -0.0359,0.10434 -0.14901,0.25438 -0.35957,0.47686 -0.14996,0.15845 -0.22661,0.25167 -0.34432,0.41875 -0.089,0.12637 -0.0973,0.13697 -0.0973,0.12441 z" id="path41" data-index="41"></path>
  <path style="fill:#1e1c22;fill-opacity:1;stroke-width:0.00390625" d="m 113.4144,180.91726 c -0.007,-0.046 -0.0427,-0.10748 -0.0861,-0.14977 -0.0791,-0.0771 -0.19959,-0.13822 -0.50644,-0.25693 -0.29354,-0.11357 -1.67822,-0.70161 -3.86874,-1.64297 l -0.44532,-0.19137 -0.001,-0.0964 c -8.3e-4,-0.0766 -3e-5,-0.0959 0.004,-0.0944 0.003,0.001 0.0849,0.0349 0.18269,0.075 2.66768,1.09618 4.41326,1.75239 4.70955,1.77045 0.0319,0.002 0.0377,0.001 0.0543,-0.007 0.10024,-0.0485 0.40941,-0.50161 0.80435,-1.17874 0.0254,-0.0436 0.047,-0.0785 0.0479,-0.0775 9.2e-4,9.2e-4 -0.0224,0.0462 -0.0518,0.10069 -0.23593,0.43672 -0.5077,1.00752 -0.78503,1.64881 -0.0276,0.0639 -0.0514,0.11621 -0.0529,0.11621 -0.001,0 -0.004,-0.007 -0.005,-0.0163 z" id="path42" data-index="42"></path>
  <path style="fill:#1e1c22;fill-opacity:1;stroke-width:0.015625" d="m 107.39844,178.19362 c -4.52125,-1.94926 -8.697372,-3.75983 -9.96094,-4.31859 -2.223759,-0.98336 -3.81111,-1.73554 -5.046875,-2.39149 -0.569024,-0.30204 -0.632813,-0.34031 -0.632813,-0.37966 0,-0.0316 0.06603,-0.002 0.675782,0.30253 0.984893,0.4919 1.861165,0.90455 3.574218,1.68314 3.354612,1.52468 7.994748,3.53525 11.796878,5.11157 l 0.67968,0.2818 0.005,0.0867 c 0.003,0.0477 -9.4e-4,0.0864 -0.008,0.0861 -0.007,-3.2e-4 -0.49414,-0.20824 -1.08281,-0.46204 z" id="path43" data-index="43"></path>
  <path style="fill:#1e1c22;fill-opacity:1;stroke-width:0.00390625" d="m 112.30664,180.29623 c -0.85826,-0.36242 -1.28341,-0.54362 -2.57422,-1.09716 -0.60049,-0.2575 -1.12124,-0.48089 -1.15722,-0.49641 l -0.0654,-0.0282 v -0.0935 c 0,-0.0732 0.001,-0.0931 0.005,-0.0915 0.003,0.001 0.14287,0.0585 0.31152,0.12769 1.49876,0.61456 2.74874,1.10687 3.52246,1.38732 l 0.0791,0.0287 v 0.15532 c 0,0.1218 -0.001,0.15528 -0.005,0.15508 -0.003,-1.4e-4 -0.055,-0.0214 -0.11621,-0.0473 z" id="path44" data-index="44"></path>
  <path style="fill:#1e1c22;fill-opacity:1;stroke-width:0.00390625" d="m 108.4707,178.64949 c -0.0674,-0.0254 -1.33666,-0.57169 -3.70996,-1.59685 l -0.73144,-0.31596 v -0.0619 c 0,-0.0341 10e-4,-0.0611 0.003,-0.0602 0.005,0.003 0.7289,0.31092 1.16308,0.4948 1.00312,0.42482 2.10444,0.88583 3.04688,1.27542 0.1289,0.0533 0.23568,0.098 0.23729,0.0994 0.004,0.004 0.01,0.11521 0.007,0.14246 -0.002,0.0231 -0.005,0.027 -0.016,0.0228 z" id="path45" data-index="45"></path>
  <path style="fill:#1e1c22;fill-opacity:1;stroke-width:0.00390625" d="" id="path46" data-index="46"></path>
  <path style="fill:#1e1c22;fill-opacity:1;stroke-width:0.00390625" d="" id="path47" data-index="47"></path>
  <path style="fill:#1e1c22;fill-opacity:1;stroke-width:0.0110485" d="m 91.581377,171.04602 c -1.132333,-0.64258 -1.960187,-1.17861 -2.800806,-1.8135 -1.181601,-0.89243 -2.231656,-1.90025 -3.242564,-3.11214 -1.360221,-1.63067 -2.701689,-3.66934 -4.533578,-6.88983 -0.09193,-0.16161 -0.170301,-0.30206 -0.174159,-0.31212 -0.0061,-0.016 0.0032,-0.0183 0.07427,-0.0182 l 0.08128,9e-5 0.04891,0.08 c 0.0269,0.044 0.180574,0.2913 0.341501,0.54956 3.065034,4.91875 5.62316,8.07334 8.164947,10.06872 0.666779,0.52344 1.345777,0.97722 2.056724,1.37452 0.129933,0.0726 0.210582,0.1233 0.189115,0.11886 -0.0358,-0.007 -0.03719,-0.006 -0.03192,0.0211 0.003,0.0159 0.0025,0.0284 -0.0012,0.0279 -0.0037,-5.1e-4 -0.08133,-0.0433 -0.172482,-0.095 z" id="path48" data-index="48"></path>
  <path style="fill:#1e1c22;fill-opacity:1;stroke-width:0.015625" d="m 80.780148,158.8319 c -0.01779,-0.0322 -0.226032,-0.40651 -0.462751,-0.8319 -0.236718,-0.42539 -0.621963,-1.125 -0.856099,-1.55469 -0.234136,-0.42969 -0.453781,-0.83266 -0.4881,-0.8955 -0.03432,-0.0628 -0.05921,-0.11744 -0.05532,-0.12134 0.0039,-0.004 0.07261,0.10729 0.152709,0.24707 0.439948,0.76779 1.134515,1.94459 1.637068,2.77368 l 0.267559,0.4414 -0.08136,-1.2e-4 c -0.07775,-1.3e-4 -0.08279,-0.003 -0.113711,-0.0586 z" id="path49" data-index="49"></path>
  <path style="fill:#1e1c22;fill-opacity:1;stroke-width:0.03125" d="m 100.23437,162.98013 c -0.352339,-0.16238 -1.104683,-0.50864 -1.67187,-0.76947 -2.200969,-1.01213 -2.893797,-1.40057 -3.631939,-2.03624 -0.807067,-0.69502 -1.676638,-1.83822 -2.794953,-3.67442 -0.531401,-0.87253 -1.162786,-1.96761 -1.144813,-1.98559 0.0081,-0.008 0.173552,0.24902 0.367671,0.57137 1.903771,3.16139 3.535249,4.85447 6.188409,6.42209 0.82909,0.48987 1.307941,0.73832 3.234375,1.67815 0.10312,0.0503 0.16641,0.091 0.14062,0.0904 -0.0258,-5.8e-4 -0.33515,-0.13392 -0.6875,-0.2963 z" id="path50" data-index="50"></path>
  <path style="fill:#7b4cd0;fill-opacity:1;stroke-width:0.0441942" d="m 216.72946,180.09895 c 0.0479,-0.0444 0.27906,-0.24326 0.51362,-0.44194 l 0.42646,-0.36125 5.1641,0.009 c 2.84026,0.005 4.99506,0.0141 4.78845,0.0204 -0.20661,0.006 -1.10154,0.0327 -1.98874,0.0587 -5.30372,0.15564 -8.19602,0.38331 -8.74496,0.68837 -0.23075,0.12824 -0.27692,0.13602 -0.15893,0.0268 z" id="path51" data-index="51"></path>
  <path style="fill:#7b4cd0;fill-opacity:1;stroke-width:0.0110485" d="m 216.84976,188.87826 c -0.68805,-0.6605 -1.06957,-1.03587 -1.18365,-1.16459 -1.18397,-1.33584 -1.61669,-2.88237 -1.23471,-4.41281 0.0386,-0.15446 0.14778,-0.49461 0.1907,-0.59386 0.0199,-0.0461 0.0268,-0.0525 0.0562,-0.0525 0.0185,0 0.0335,0.004 0.0334,0.008 -5e-5,0.005 -0.0198,0.0641 -0.0439,0.13225 -0.0567,0.16051 -0.12502,0.41036 -0.16554,0.60524 -0.10965,0.52726 -0.13063,1.1031 -0.06,1.64623 0.16626,1.27821 0.85519,2.45124 1.89914,3.23364 0.38691,0.28997 0.96242,0.60579 1.24296,0.68211 0.3586,0.0976 1.31915,0.18469 3.04387,0.27616 0.0957,0.005 -0.58551,0.009 -1.61308,0.01 l -1.77882,0.001 z" id="path52" data-index="52"></path>
  <path style="fill:#7b4cd0;fill-opacity:1;stroke-width:0.00390625" d="m 214.63477,182.66881 c 0,-0.0143 0.10959,-0.25479 0.17279,-0.37914 0.35861,-0.7056 0.86909,-1.33222 1.57525,-1.93365 l 0.0508,-0.0432 0.0503,-1.4e-4 0.0503,-1.4e-4 -0.0736,0.0552 c -0.78441,0.58802 -1.37126,1.34964 -1.71678,2.22804 -0.0169,0.043 -0.0308,0.0744 -0.0308,0.0698 -7e-5,-0.006 -0.003,-0.009 -0.0123,-0.0107 -0.0253,-0.005 -0.0415,-0.003 -0.0539,0.008 -0.007,0.006 -0.012,0.008 -0.012,0.006 z" id="path53" data-index="53"></path>
  <path style="fill:#7b4cd0;fill-opacity:1;stroke-width:0.00390625" d="m 216.43587,180.31115 c 0.0345,-0.0286 1.19181,-1.00211 1.19751,-1.00728 0.005,-0.005 0.0125,-0.007 0.0188,-0.006 0.009,0.001 -0.0232,0.0297 -0.23873,0.21222 -0.49338,0.41778 -0.68806,0.58614 -0.72519,0.62717 -0.0453,0.0501 -0.0223,0.0513 0.0744,0.004 0.0355,-0.0174 0.0652,-0.0311 0.0659,-0.0303 7.2e-4,7.1e-4 -0.0404,0.0289 -0.0914,0.0626 -0.051,0.0337 -0.1173,0.0789 -0.14738,0.10031 l -0.0547,0.039 -0.0505,3e-5 c -0.0277,2e-5 -0.0497,-5.8e-4 -0.0488,-0.001 z" id="path54" data-index="54"></path>
  <path style="fill:#7b4cd0;fill-opacity:1;stroke-width:0.00390625" d="" id="path55" data-index="55"></path>
  <path style="fill: rgb(121, 40, 202); fill-opacity: 1; opacity: 1; visibility: visible;" d="m 211.42773,184.74609 v -2.55859 h 1.71322 c 0.94227,0 1.71263,0.001 1.71191,0.003 -7.1e-4,0.002 -0.0235,0.047 -0.0507,0.10059 -0.60015,1.18326 -0.67696,2.47382 -0.21942,3.68693 0.11519,0.30544 0.27092,0.62006 0.44774,0.90462 0.0729,0.11731 0.21305,0.32292 0.2776,0.40724 l 0.0112,0.0146 h -1.94578 -1.94578 z" id="path56" data-index="56"></path>
  <path style="fill:#7b4cd0;fill-opacity:1;stroke-width:0.00390625" d="" id="path57" data-index="57"></path>
  <path style="fill:#7b4cd0;fill-opacity:1;stroke-width:0.015625" d="m 255.49219,189.23935 c 0.0473,-0.003 0.3039,-0.0156 0.57031,-0.0287 1.50418,-0.0741 2.59588,-0.17376 2.98005,-0.27202 0.31445,-0.0804 0.86299,-0.38633 1.25823,-0.70168 0.0881,-0.0703 0.16016,-0.12392 0.16016,-0.11919 0,0.005 -0.23231,0.26142 -0.51623,0.57043 l -0.51623,0.56184 -2.01112,-0.003 c -1.10611,-0.002 -1.97244,-0.005 -1.92517,-0.008 z" id="path58" data-index="58"></path>
  <path style="fill:#7b4cd0;fill-opacity:1;stroke-width:0.015625" d="m 261.25781,187.19378 c 0,-0.005 0.0382,-0.0711 0.0849,-0.1466 0.20442,-0.33048 0.39798,-0.77319 0.51591,-1.17999 0.23869,-0.82342 0.27223,-1.66455 0.10092,-2.53125 -0.10625,-0.53757 -0.34461,-1.15639 -0.62194,-1.61471 -0.0538,-0.0889 -0.095,-0.16434 -0.0916,-0.16772 0.003,-0.003 0.0689,0.075 0.14571,0.17419 0.59168,0.76448 0.93081,1.48652 1.02906,2.19097 0.0314,0.22501 0.0317,0.65978 6.9e-4,0.87819 -0.102,0.71769 -0.42018,1.41749 -1.0035,2.20705 -0.13818,0.18703 -0.16012,0.21305 -0.16012,0.18987 z" id="path59" data-index="59"></path>
  <path style="fill:#7b4cd0;fill-opacity:1;stroke-width:0.015625" d="m 259.91406,180.20121 c -0.12864,-0.0944 -0.40529,-0.25801 -0.5509,-0.32589 -0.15402,-0.0718 -0.38243,-0.12478 -0.76941,-0.17846 -1.17907,-0.16355 -3.36736,-0.28618 -6.83594,-0.38307 -0.24744,-0.007 1.21054,-0.0131 3.4376,-0.0145 l 3.86728,-0.002 0.48418,0.48438 c 0.26631,0.26641 0.4772,0.48406 0.46866,0.48368 -0.009,-3.8e-4 -0.0542,-0.0291 -0.10147,-0.0637 z" id="path60" data-index="60"></path>
  <path style="fill:#7b4cd0;fill-opacity:1;stroke-width:0.00552427" d="m 214.48261,252.76493 c 0,-0.002 0.009,-0.0337 0.0197,-0.0704 0.37374,-1.26689 1.21841,-2.3504 2.41651,-3.09976 0.0815,-0.051 0.13617,-0.0772 0.21588,-0.10361 0.70053,-0.23198 3.02239,-0.42522 6.78337,-0.56457 0.33708,-0.0125 1.05448,-0.0366 1.31477,-0.0442 0.0562,-0.002 0.13514,-0.004 0.1754,-0.006 l 0.0732,-0.003 v 0.0277 0.0277 l -0.04,0.003 c -0.022,0.002 -0.22153,0.009 -0.44333,0.0172 -1.5364,0.0539 -3.11613,0.13237 -4.28959,0.21299 -1.75137,0.12032 -2.90493,0.26738 -3.27772,0.41787 -0.051,0.0206 -0.198,0.0954 -0.31017,0.1579 -1.06725,0.59441 -1.87035,1.49762 -2.31217,2.60039 -0.0405,0.10098 -0.10711,0.28762 -0.13268,0.37151 l -0.0181,0.0594 h -0.0875 c -0.0481,0 -0.0875,-0.002 -0.0875,-0.004 z" id="path61" data-index="61"></path>
  <path style="fill:#7b4cd0;fill-opacity:1;stroke-width:0.00552427" d="m 214.4609,255.39951 c -0.0163,-0.0608 -0.0516,-0.21363 -0.0667,-0.28864 -0.13039,-0.65107 -0.13018,-1.32716 6.1e-4,-1.97927 0.0246,-0.12241 0.0804,-0.35234 0.0872,-0.35919 0.002,-0.002 0.0423,-0.003 0.0885,-5.5e-4 0.0733,0.003 0.0838,0.005 0.0815,0.0127 -0.11446,0.39491 -0.18002,0.77876 -0.20319,1.18975 -0.008,0.14596 -0.003,0.53332 0.008,0.66695 0.0227,0.25847 0.058,0.49162 0.10719,0.70848 l 0.016,0.0704 h -0.057 -0.057 z" id="path62" data-index="62"></path>
  <path style="fill:#7b4cd0;fill-opacity:1;stroke-width:0.00552427" d="m 217.23094,258.7231 c -0.10743,-0.0284 -0.2025,-0.0603 -0.25883,-0.0868 -0.0862,-0.0405 -0.3578,-0.22039 -0.54219,-0.35909 -0.36104,-0.27155 -0.68701,-0.58281 -0.96694,-0.92329 -0.44151,-0.53701 -0.77851,-1.17405 -0.96685,-1.82773 -0.0137,-0.0476 -0.0263,-0.091 -0.0279,-0.0963 -0.003,-0.009 0.002,-0.01 0.0548,-0.01 h 0.0577 l 0.0148,0.0594 c 0.17322,0.69461 0.51716,1.37183 0.97483,1.91943 0.23707,0.28366 0.51925,0.55273 0.80616,0.76871 0.26933,0.20276 0.52265,0.35872 0.83691,0.51528 0.0693,0.0345 0.12031,0.0626 0.11325,0.0624 -0.007,-2.2e-4 -0.0501,-0.0103 -0.0957,-0.0223 z" id="path63" data-index="63"></path>
  <path style="fill:#7b4cd0;fill-opacity:1;stroke-width:0.00552427" d="m 234.5661,259.48569 c -2.31863,-0.0165 -5.00213,-0.0557 -6.77552,-0.099 -0.73697,-0.018 -1.33878,-0.0335 -1.37002,-0.0353 -0.0197,-10e-4 0.14184,-10e-4 0.35908,1.7e-4 1.76859,0.01 2.66258,0.0138 4.33103,0.0185 1.05583,0.003 2.50823,0.005 3.22756,0.005 l 1.30787,7e-5 v 0.058 0.058 l -0.25274,-9.3e-4 c -0.139,-5e-4 -0.51127,-0.003 -0.82726,-0.005 z" id="path64" data-index="64"></path>
  <path style="fill:#7b4cd0;fill-opacity:1;stroke-width:0.00552427" d="m 235.97893,259.49339 -0.33283,-0.002 v -0.058 -0.058 h 3.53553 3.53553 v 0.0491 0.0491 l -0.12291,0.003 c -0.41639,0.0113 -5.33287,0.0234 -6.61532,0.0162 z" id="path65" data-index="65"></path>
  <path style="fill:#7b4cd0;fill-opacity:1;stroke-width:0.00552427" d="m 242.71716,259.42624 v -0.0488 l 2.07575,-0.004 c 1.8319,-0.003 2.56806,-0.006 4.4429,-0.0166 0.51305,-0.003 0.46986,-5e-5 -0.27898,0.0182 -1.19989,0.0293 -2.25993,0.05 -3.54934,0.0692 -0.93389,0.0139 -2.31519,0.0305 -2.54808,0.0305 l -0.14225,2e-5 z" id="path66" data-index="66"></path>
  <path style="fill:#7b4cd0;fill-opacity:1;stroke-width:0.00552427" d="" id="path67" data-index="67"></path>
  <path style="fill:#7b4cd0;fill-opacity:1;stroke-width:0.00552427" d="m 259.42809,258.67478 c 0.0684,-0.0235 0.15373,-0.0547 0.1897,-0.0692 0.036,-0.0145 0.0667,-0.0251 0.0682,-0.0235 0.005,0.005 -0.11998,0.0626 -0.17508,0.081 -0.0645,0.0215 -0.18658,0.0553 -0.19843,0.0548 -0.005,-1.7e-4 0.0472,-0.0196 0.11557,-0.0431 z" id="path68" data-index="68"></path>
  <path style="fill:#7b4cd0;fill-opacity:1;stroke-width:0.00552427" d="m 260.89202,257.62279 c 0,-0.002 0.0213,-0.0337 0.0472,-0.0702 0.1128,-0.15858 0.38413,-0.59016 0.51204,-0.81448 0.35745,-0.62684 0.58019,-1.35313 0.64218,-2.094 0.0947,-1.13105 -0.17308,-2.28611 -0.75548,-3.25932 -0.0948,-0.15847 -0.22718,-0.35326 -0.33122,-0.48746 l -0.0482,-0.0622 h 0.0826 0.0826 l 0.0367,0.0428 c 0.16727,0.1951 0.35763,0.45967 0.49784,0.69191 0.40592,0.67237 0.64107,1.39336 0.70629,2.16551 0.0121,0.14281 0.0165,0.46083 0.008,0.61044 -0.055,1.02659 -0.41736,1.97614 -1.07701,2.82243 -0.12551,0.16102 -0.40396,0.47438 -0.40396,0.4546 z" id="path69" data-index="69"></path>
  <path style="fill:#7b4cd0;fill-opacity:1;stroke-width:0.00552427" d="m 260.90157,250.76465 c -0.42775,-0.52373 -0.97246,-0.95885 -1.56829,-1.25279 -0.0583,-0.0288 -0.10362,-0.0523 -0.10063,-0.0523 0.0152,0 0.17483,0.0419 0.24358,0.064 0.0975,0.0313 0.15254,0.0591 0.28608,0.14424 0.48129,0.30705 0.92618,0.68073 1.28137,1.0763 0.0272,0.0303 0.0569,0.0632 0.066,0.073 l 0.0165,0.018 h -0.0836 -0.0836 z" id="path70" data-index="70"></path>
  <path style="fill:#7b4cd0;fill-opacity:1;stroke-width:0.00552427" d="m 232.06233,248.74308 c 0.005,-0.001 0.0128,-0.001 0.0166,2e-4 0.004,0.002 -6.5e-4,0.003 -0.01,0.003 -0.009,-1.1e-4 -0.0122,-0.001 -0.007,-0.003 z" id="path71" data-index="71"></path>
  <path style="fill:#7b4cd0;fill-opacity:1;stroke-width:0.00552427" d="m 228.18833,248.83055 v -0.0218 l 0.0566,-0.003 c 0.0312,-0.002 0.20578,-0.006 0.38808,-0.009 1.05415,-0.0186 1.29979,-0.0227 1.80368,-0.0303 2.30087,-0.0344 4.82955,-0.0533 6.89981,-0.0517 l 1.06895,8.7e-4 -0.90046,0.004 c -2.54726,0.0116 -5.07647,0.0417 -7.40252,0.0881 -0.75576,0.0151 -1.74159,0.0373 -1.8382,0.0413 l -0.076,0.003 z" id="path72" data-index="72"></path>
  <path style="fill:#7b4cd0;fill-opacity:1;stroke-width:0.00552427" d="m 225.48144,248.90159 c 0,-0.0275 9e-5,-0.0276 0.018,-0.0276 0.01,0 0.095,-0.002 0.18921,-0.006 0.47667,-0.0153 2.3152,-0.0608 2.45692,-0.0608 l 0.0428,-1e-5 v 0.0221 0.0221 l -0.0318,3e-5 c -0.1188,1.1e-4 -1.81588,0.0493 -2.38235,0.0691 -0.12913,0.005 -0.24783,0.008 -0.26378,0.008 l -0.029,4e-5 z" id="path73" data-index="73"></path>
  <path style="fill:#7b4cd0;fill-opacity:1;stroke-width:0.00552427" d="m 175.0476,258.0624 c -1.59291,-1.57375 -2.86266,-2.79368 -3.38833,-3.25537 l -0.0346,-0.0304 0.0611,-0.0607 0.0611,-0.0607 0.0793,0.08 c 0.0594,0.06 3.166,3.23111 3.38635,3.45675 0.0383,0.0392 0.0388,0.0401 0.0227,0.0398 -0.014,-2.2e-4 -0.0416,-0.0251 -0.18769,-0.16944 z" id="path74" data-index="74"></path>
  <path style="fill:#7b4cd0;fill-opacity:1;stroke-width:0.00552427" d="m 174.5114,257.88267 c -1.21607,-1.23991 -2.03931,-2.09464 -2.56326,-2.66132 -0.3098,-0.33507 -0.47559,-0.53033 -0.4503,-0.53033 0.0163,0 0.18796,0.14415 0.38159,0.32047 0.54109,0.4927 1.97899,1.88104 3.11638,3.00899 l 0.21338,0.2116 h -0.17755 -0.17755 z" id="path75" data-index="75"></path>
  <path style="fill:#7b4cd0;fill-opacity:1;stroke-width:0.00552427" d="m 173.16478,256.56767 -1.66738,-1.66396 0.0418,-0.0413 c 0.036,-0.0355 0.0428,-0.0401 0.0491,-0.0331 0.004,0.004 0.0233,0.0268 0.0428,0.0496 0.33359,0.38928 1.52224,1.63174 2.92394,3.0563 0.16069,0.16331 0.28878,0.29683 0.28463,0.29671 -0.004,-1.2e-4 -0.75785,-0.749 -1.6749,-1.66419 z" id="path76" data-index="76"></path>
  <path style="fill:#7b4cd0;fill-opacity:1;stroke-width:0.00552427" d="m 177.20035,260.59233 c -0.64671,-0.64641 -1.43857,-1.44129 -1.75969,-1.76639 l -0.58385,-0.5911 0.17811,-0.001 0.1781,-10e-4 0.27913,0.27767 c 1.1711,1.16499 2.44535,2.44158 3.1459,3.15167 l 0.10491,0.10635 h -0.18338 -0.18339 z" id="path77" data-index="77"></path>
  <path style="fill:#7b4cd0;fill-opacity:1;stroke-width:0.00552427" d="m 175.69756,258.70691 c -0.42259,-0.42068 -0.47513,-0.47483 -0.46076,-0.47483 0.0142,0 0.0615,0.0462 0.37479,0.36598 0.19721,0.2013 0.40681,0.41508 0.46578,0.47509 0.059,0.06 0.10495,0.10899 0.1022,0.10885 -0.003,-1.4e-4 -0.21966,-0.21393 -0.48201,-0.47509 z" id="path78" data-index="78"></path>
  <path style="fill:#7b4cd0;fill-opacity:1;stroke-width:0.00552427" d="m 176.25731,259.26502 c -0.0118,-0.0121 -0.019,-0.022 -0.0159,-0.022 0.007,0 0.0438,0.0376 0.0401,0.0412 -0.002,0.002 -0.0124,-0.007 -0.0242,-0.0192 z" id="path79" data-index="79"></path>
  <path style="fill:#7b4cd0;fill-opacity:1;stroke-width:0.00552427" d="" id="path80" data-index="80"></path>
  <path style="fill:#7b4cd0;fill-opacity:1;stroke-width:0.00552427" d="" id="path81" data-index="81"></path>
  <path style="fill:#7b4cd0;fill-opacity:1;stroke-width:0.00552427" d="" id="path82" data-index="82"></path>
  <path style="fill: rgb(121, 40, 202); fill-opacity: 1; opacity: 1; visibility: visible;" d="m 177.18508,260.57299 c -1.05839,-1.05989 -2.17407,-2.18265 -2.28087,-2.29533 l -0.038,-0.0401 h 0.17286 0.17287 l 0.31172,0.30949 c 0.17145,0.17022 0.31408,0.30804 0.31694,0.30627 0.003,-0.002 0.005,9e-5 0.005,0.004 0,0.008 0.0829,0.0927 0.091,0.0927 0.003,0 0.0143,0.009 0.0254,0.0197 0.0153,0.0149 0.021,0.0178 0.0233,0.0117 0.002,-0.005 -0.0529,-0.0652 -0.16084,-0.17539 -0.0902,-0.092 -1.04591,-1.06728 -2.12388,-2.16722 l -1.95995,-1.99987 0.054,-0.0542 0.054,-0.0542 h 4.34356 4.34356 v 3.6184 3.6184 h -0.89094 -0.89094 l -0.23739,-0.23886 c -0.13057,-0.13138 -0.43016,-0.43279 -0.66576,-0.66982 -0.82579,-0.83079 -1.1322,-1.14008 -1.36419,-1.37699 -0.12868,-0.13141 -0.23802,-0.23893 -0.24297,-0.23893 -0.005,0 -0.012,-0.003 -0.0156,-0.007 -0.004,-0.004 -0.007,-0.005 -0.007,-0.002 0,0.002 0.46888,0.47462 1.04195,1.04934 0.57308,0.57471 1.13893,1.14375 1.25745,1.26453 l 0.21548,0.21959 h -0.17919 -0.1792 z m -1.01201,-1.41129 c -0.0766,-0.0828 -0.10072,-0.10199 -0.10072,-0.08 0,0.0119 0.10729,0.11974 0.11462,0.11521 0.003,-0.002 0.0111,0.003 0.0181,0.0103 0.007,0.007 0.014,0.0125 0.0154,0.011 0.001,-10e-4 -0.0199,-0.0269 -0.0474,-0.0566 z m -0.1415,-0.14441 c -0.0199,-0.0199 -0.0378,-0.0345 -0.0398,-0.0325 -0.007,0.007 0.0129,0.0381 0.0455,0.0713 0.0268,0.0273 0.0268,0.0273 0.0286,0.0123 0.001,-0.0122 -0.005,-0.0217 -0.0343,-0.0511 z" id="path83" data-index="83"></path>
  <use id="use83" inkscape:spray-origin="#path83" xlink:href="#path83" transform="translate(3.2901555,-0.9167516)"></use>
  <path style="fill: rgb(123, 76, 208); fill-opacity: 1; stroke-width: 0.0220971; opacity: 1;" d="m 159.73559,266.97148 c 0.5198,-0.55234 0.83488,-0.92793 0.80419,-0.95862 -0.0166,-0.0166 -0.14869,0.0641 -0.20267,0.12374 -0.0223,0.0247 -0.0513,0.0449 -0.0644,0.0449 -0.0131,0 0.29458,-0.32069 0.68365,-0.71263 0.38906,-0.39195 1.15764,-1.16791 1.70794,-1.72437 l 1.00055,-1.01173 1.36634,1.35424 c 0.75148,0.74483 1.36276,1.35801 1.35839,1.36262 -0.004,0.005 -0.18481,-0.1603 -0.40099,-0.36649 -0.98746,-0.94181 -1.83605,-1.69038 -2.03355,-1.79385 -0.0398,-0.0209 -0.0636,-0.0188 -0.12153,0.0107 -0.20403,0.10379 -1.03496,0.83055 -2.27068,1.986 -0.57537,0.53801 -1.8402,1.74581 -1.97665,1.88755 -0.048,0.0499 -0.0961,0.0907 -0.10675,0.0907 -0.0107,0 0.10459,-0.13176 0.25614,-0.29279 z" id="path84" data-index="84"></path>
  <path style="fill:#7b4cd0;fill-opacity:1;stroke-width:0.0220971" d="m 154.75735,271.79969 c 0.001,-0.0509 0.65644,-0.76632 1.61384,-1.76224 1.49153,-1.55155 3.98246,-3.96643 4.09134,-3.96643 0.0351,0 0.0148,0.0311 -0.14201,0.21724 -0.96488,1.14582 -5.36546,5.52801 -5.5512,5.52801 -0.007,0 -0.0122,-0.007 -0.012,-0.0166 z" id="path85" data-index="85"></path>
  <path style="fill:#7b4cd0;fill-opacity:1;stroke-width:0.0220971" d="m 177.92485,274.64216 c -1.38847,-0.084 -3.00101,-1.04962 -5.43499,-3.25442 -0.51602,-0.46743 -1.20586,-1.12407 -1.19369,-1.13623 0.007,-0.007 0.0796,0.0524 0.16128,0.13202 0.4399,0.42878 1.56787,1.40918 2.2367,1.9441 1.57729,1.26146 2.83645,1.96291 3.92173,2.18469 0.4469,0.0913 0.80414,0.10001 1.34843,0.0328 0.18423,-0.0227 -0.0363,0.0311 -0.2646,0.0647 -0.28991,0.0426 -0.47735,0.0504 -0.77486,0.0324 z" id="path86" data-index="86"></path>
  <path style="fill:#7b4cd0;fill-opacity:1;stroke-width:0.0220971" d="" id="path87" data-index="87"></path>
  <path style="fill: rgb(123, 76, 208); fill-opacity: 1; opacity: 1;" d="m 180.77627,273.70038 c 0.0121,-0.0125 0.12153,-0.10243 0.24307,-0.19982 0.47741,-0.38259 1.15186,-1.06088 1.56489,-1.57381 0.55073,-0.68393 0.88,-1.34532 0.97809,-1.96467 0.0549,-0.34654 0.0357,-0.87924 -0.0443,-1.22578 -0.26369,-1.1436 -1.04252,-2.4064 -2.60925,-4.23069 -0.40577,-0.47247 -0.94999,-1.07402 -1.40582,-1.55389 -0.18082,-0.19036 -0.32877,-0.35261 -0.32877,-0.36056 0,-0.008 0.40023,0.3755 0.88941,0.8521 0.95249,0.92799 1.08434,1.07562 1.71932,1.92497 0.97936,1.31002 1.58643,2.42619 1.81938,3.34516 0.13087,0.51627 0.16354,1.06817 0.0893,1.50809 -0.1665,0.98627 -0.81186,1.89777 -2.02041,2.85363 -0.41701,0.32982 -1.01135,0.74507 -0.89493,0.62527 z" id="path88" data-index="88"></path>
  <path style="fill: rgb(123, 76, 208); fill-opacity: 1; opacity: 1;" d="m 182.09104,265.349 c -0.40378,-0.36707 -1.05995,-0.99751 -2.36323,-2.27059 l -1.31363,-1.28317 0.16458,-0.007 0.16458,-0.007 0.59412,0.60392 c 1.31061,1.33222 2.83774,2.93141 2.95588,3.09537 0.0764,0.10606 0.0138,0.0656 -0.2023,-0.13093 z" id="path89" data-index="89"></path>
  <path style="fill:#7b4cd0;fill-opacity:1;stroke-width:0.00390625" d="m 158.86133,267.87995 c 0,-0.002 0.003,-0.006 0.006,-0.009 0.008,-0.007 0.26239,-0.27052 0.4136,-0.42919 0.43747,-0.45903 0.81636,-0.86987 1.01513,-1.10072 0.019,-0.0221 0.0355,-0.0393 0.0365,-0.0382 0.003,0.003 -0.16728,0.19861 -0.30156,0.34597 -0.07,0.0768 -0.22038,0.23921 -0.31674,0.34204 -0.12931,0.13799 -0.23625,0.26053 -0.23625,0.27069 0,0.006 0.004,0.006 0.015,-0.002 0.005,-0.003 0.01,-0.005 0.0108,-0.004 0.001,10e-4 -0.1138,0.11412 -0.25512,0.25138 -0.14132,0.13725 -0.28639,0.27837 -0.32239,0.31359 -0.036,0.0352 -0.0654,0.0623 -0.0654,0.06 z" id="path90" data-index="90"></path>
  <path style="fill:#7b4cd0;fill-opacity:1;stroke-width:0.00390625" d="m 157.29492,269.26523 v -0.17029 l 0.41318,-0.41173 c 1.27856,-1.27406 2.41978,-2.36365 2.69424,-2.57233 0.0477,-0.0363 0.0723,-0.0462 0.0723,-0.0293 0,0.0364 -0.32736,0.41296 -0.77123,0.88716 -0.54025,0.57717 -1.37507,1.43471 -2.15424,2.21288 l -0.25422,0.25389 z" id="path91" data-index="91"></path>
  <path style="fill:#7b4cd0;fill-opacity:1;stroke-width:0.00390625" d="m 159.12217,267.61035 c 0.10066,-0.10473 0.23991,-0.2506 0.30946,-0.32414 0.0695,-0.0735 0.1272,-0.13298 0.12811,-0.13207 9e-4,9e-4 -0.0105,0.0154 -0.0254,0.0323 -0.0281,0.0318 -0.0598,0.0723 -0.0598,0.0763 0,10e-4 0.004,0.003 0.008,0.004 0.007,10e-4 -0.002,0.0113 -0.0501,0.0579 -0.0322,0.0311 -0.15538,0.15112 -0.27372,0.2666 -0.11833,0.11548 -0.21625,0.20996 -0.2176,0.20996 -0.001,0 0.0799,-0.0857 0.18056,-0.19043 z" id="path92" data-index="92"></path>
  <path style="fill:#7b4cd0;fill-opacity:1;stroke-width:0.00390625" d="" id="path93" data-index="93"></path>
  <path style="fill:#7b4cd0;fill-opacity:1;stroke-width:0.00390625" d="m 157.29552,269.4501 c 8.1e-4,-0.005 0.11471,-0.12231 0.2807,-0.28889 0.8774,-0.88055 1.56513,-1.58723 2.09568,-2.15342 0.35552,-0.3794 0.57519,-0.62442 0.72587,-0.80963 0.0785,-0.0965 0.0933,-0.12424 0.0677,-0.12716 -0.0121,-0.001 -0.0276,0.007 -0.0684,0.0393 -0.0136,0.0106 -0.0256,0.0184 -0.0266,0.0174 -0.002,-0.002 0.0402,-0.0365 0.0831,-0.0673 0.0272,-0.0195 0.0314,-0.0213 0.0508,-0.0213 h 0.0212 l -0.008,0.0148 c -0.0104,0.0204 -0.0804,0.11298 -0.13381,0.17704 -0.38837,0.46562 -1.36603,1.49623 -2.56778,2.70686 -0.41943,0.42252 -0.52276,0.52416 -0.52089,0.51234 z" id="path94" data-index="94"></path>
  <path style="fill:#7b4cd0;fill-opacity:1;stroke-width:0.00390625" d="m 157.34607,269.39961 c 0.002,-0.005 0.0923,-0.097 0.48968,-0.4973 0.30909,-0.31138 0.48277,-0.48755 0.79716,-0.80856 0.27068,-0.27638 0.65489,-0.67617 0.95457,-0.9933 0.0524,-0.0554 0.096,-0.0999 0.0971,-0.0988 0.005,0.005 -0.70362,0.74709 -1.0927,1.14485 -0.60467,0.61816 -1.25091,1.26821 -1.2458,1.25313 z" id="path95" data-index="95"></path>
  <path style="fill:#7b4cd0;fill-opacity:1;stroke-width:0.00390625" d="" id="path96" data-index="96"></path>
  <path style="fill:#7b4cd0;fill-opacity:1;stroke-width:0.00390625" d="m 156.3582,270.0403 c 10e-4,-0.009 0.0694,-0.0802 0.46197,-0.48157 0.9634,-0.98491 2.0222,-2.02836 2.81655,-2.77573 0.26349,-0.24791 0.65883,-0.60399 0.6644,-0.59842 0.001,0.001 -0.025,0.0254 -0.0578,0.0542 -0.25066,0.21934 -0.90786,0.83915 -1.40347,1.3236 -0.0387,0.0378 -0.10459,0.10211 -0.14648,0.1429 -0.61812,0.60182 -1.59325,1.57688 -2.09766,2.09751 -0.0999,0.10312 -0.19447,0.20067 -0.21016,0.21678 -0.0209,0.0215 -0.0282,0.027 -0.0273,0.0208 z" id="path97" data-index="97"></path>
  <path style="fill: rgb(123, 76, 208); fill-opacity: 1; opacity: 1; visibility: visible;" d="m 156.35742,270.77209 v -0.38416 l 0.13965,-0.13618 c 0.56709,-0.55301 1.24917,-1.23327 1.79377,-1.78897 0.35116,-0.35831 0.38004,-0.38718 0.6623,-0.66192 0.6881,-0.66978 1.09104,-1.05791 1.74504,-1.68092 l 0.0849,-0.0809 h 1.98639 1.98639 v 2.5586 2.55859 h -4.19922 -4.19922 z" id="path98" data-index="98"></path>
  <path style="fill:#7b4cd0;fill-opacity:1;stroke-width:0.00390625" d="" id="path99" data-index="99"></path>
  <path style="fill:#7b4cd0;fill-opacity:1;stroke-width:0.00390625" d="m 156.35742,270.2068 v -0.15322 l 0.0537,-0.0551 c 0.0296,-0.0303 0.10904,-0.11224 0.17664,-0.18206 0.53149,-0.54899 1.47342,-1.49005 2.18375,-2.18177 0.92061,-0.89647 1.57228,-1.50122 1.67455,-1.55397 0.017,-0.009 0.0285,-0.008 0.0285,9.2e-4 0,0.0532 -0.63709,0.75917 -1.36116,1.50825 -0.026,0.0269 -0.099,0.10245 -0.16224,0.16797 -0.12818,0.13274 -0.14572,0.15075 -0.52341,0.53711 -0.43126,0.44116 -1.85468,1.86254 -2.03156,2.02864 l -0.0388,0.0365 z" id="path100" data-index="100"></path>
  <path style="fill:#7b4cd0;fill-opacity:1;stroke-width:0.00390625" d="" id="path101" data-index="101"></path>
  <path style="fill: rgb(121, 40, 202); fill-opacity: 1; opacity: 1; visibility: visible;" d="m 156.35742,270.77208 v -0.38417 l 0.14746,-0.14386 c 0.58275,-0.56853 1.29097,-1.27568 1.88169,-1.87884 0.28181,-0.28774 0.34101,-0.34643 0.72671,-0.72047 0.11387,-0.11042 0.23516,-0.22821 0.26953,-0.26175 0.0709,-0.0691 0.24067,-0.23322 0.40235,-0.38878 0.0602,-0.0579 0.13134,-0.12656 0.1582,-0.15263 0.0601,-0.0583 0.28607,-0.27467 0.50979,-0.48806 0.0923,-0.0881 0.20394,-0.19481 0.248,-0.23716 l 0.0801,-0.077 1.9873,-1.5e-4 1.98731,-1.5e-4 v 2.5586 2.55859 h -4.19922 -4.19922 z" id="path102" data-index="102"></path>
  <path style="fill:#7b4cd0;fill-opacity:1;stroke-width:0.00390625" d="" id="path103" data-index="103"></path>
  <path style="fill:#7b4cd0;fill-opacity:1;stroke-width:0.00390625" d="m 157.3457,269.40029 c 0,-0.002 0.0471,-0.0511 0.10462,-0.10918 0.0575,-0.0581 0.22585,-0.22781 0.37403,-0.37723 0.23403,-0.23601 0.47263,-0.47811 0.79671,-0.80841 0.24583,-0.25056 0.66403,-0.68552 0.96441,-1.00309 0.0534,-0.0565 0.0981,-0.1018 0.0992,-0.10069 0.002,0.002 -0.0135,0.0187 -0.21002,0.22677 -0.441,0.46692 -0.98019,1.02207 -1.58782,1.63482 -0.41039,0.41385 -0.54109,0.54356 -0.54109,0.53701 z" id="path104" data-index="104"></path>
  <path style="fill:#7b4cd0;fill-opacity:1;stroke-width:0.015625" d="m 149.64985,274.45184 c -0.25466,-0.0162 -0.54056,-0.0536 -0.77378,-0.10138 -0.22511,-0.0461 -0.43877,-0.10383 -0.34482,-0.0932 0.19285,0.0218 1.08224,0.0424 1.50781,0.0349 0.50375,-0.009 0.69978,-0.0264 1.00781,-0.0902 1.02219,-0.21149 1.90217,-0.80079 3.60938,-2.41713 0.15469,-0.14646 0.28364,-0.26396 0.28657,-0.26112 0.003,0.003 -0.0338,0.0513 -0.0817,0.10769 -0.124,0.14617 -0.17579,0.22781 -0.15332,0.24169 0.0272,0.0168 -0.75292,0.72478 -1.28597,1.16708 -1.22684,1.01802 -1.94134,1.34017 -3.13308,1.41265 -0.2838,0.0173 -0.3539,0.0172 -0.63894,-9.7e-4 z" id="path105" data-index="105"></path>
  <path style="fill:#7b4cd0;fill-opacity:1;stroke-width:0.015625" d="m 147.31416,273.80524 c -1.58276,-0.81258 -2.73631,-2.26463 -3.06275,-3.85529 -0.0824,-0.40147 -0.0947,-0.54504 -0.0936,-1.09058 10e-4,-0.5336 0.0173,-0.7342 0.0866,-1.07031 0.18254,-0.88548 0.77797,-1.77426 2.28683,-3.41352 0.56561,-0.61449 1.70993,-1.80363 1.72304,-1.79052 0.004,0.004 -0.10387,0.12588 -0.2405,0.27005 -1.08206,1.1417 -1.90913,2.09402 -2.47347,2.84805 -1.21511,1.62356 -1.51423,2.6426 -1.21275,4.13156 0.10846,0.53566 0.36816,1.11162 0.77909,1.72782 0.5943,0.89118 1.45758,1.74405 2.25446,2.22726 0.18448,0.11187 0.19109,0.11649 0.16647,0.11649 -0.009,0 -0.10521,-0.0455 -0.21343,-0.10101 z" id="path106" data-index="106"></path>
  <path style="fill: rgb(123, 76, 208); fill-opacity: 1; opacity: 1;" d="m 152.39844,258.33456 c 0,-0.005 0.11441,-0.12985 0.25425,-0.27734 1.50269,-1.58487 2.68442,-2.96608 2.76348,-3.22998 0.016,-0.0535 0.0136,-0.0636 -0.0298,-0.12628 -0.15801,-0.2278 -0.94443,-1.10359 -2.00741,-2.23553 -0.26426,-0.2814 -0.48047,-0.51667 -0.48047,-0.52281 0,-0.006 0.36035,0.34734 0.80078,0.78552 1.02499,1.01976 1.59954,1.5625 1.95597,1.84769 0.12375,0.099 0.19637,0.13587 0.19637,0.0997 0,-0.0359 -0.19144,-0.27687 -0.43496,-0.54753 -0.072,-0.08 -0.12805,-0.14829 -0.12459,-0.15175 0.003,-0.003 0.16735,0.15488 0.36421,0.35187 l 0.35791,0.35817 -0.47582,0.4811 c -0.26169,0.2646 -1.07279,1.08753 -1.80244,1.82874 -0.72965,0.74121 -1.32906,1.34765 -1.33203,1.34765 -0.003,0 -0.005,-0.004 -0.005,-0.009 z" id="path107" data-index="107"></path>
  <path style="fill:#7b4cd0;fill-opacity:1;stroke-width:0.015625" d="m 155.71656,254.60397 c -0.50603,-0.37529 -2.69837,-2.53318 -3.84407,-3.78366 -0.41319,-0.45098 -0.7051,-0.80469 -0.6641,-0.80469 0.008,0 0.057,0.0315 0.10824,0.07 0.53691,0.4036 2.69454,2.52829 3.86445,3.80546 0.38873,0.42436 0.68176,0.78075 0.64195,0.78075 -0.008,0 -0.0561,-0.0306 -0.10647,-0.0679 z" id="path108" data-index="108"></path>
  <path style="fill: rgb(123, 76, 208); fill-opacity: 1; stroke-width: 0.015625; opacity: 1;" d="m 151.60876,250.59762 c -0.16223,-0.16971 -0.78764,-0.81832 -1.38979,-1.44137 -2.54141,-2.6296 -3.32901,-3.47146 -4.1661,-4.45313 -0.38785,-0.45482 -0.98256,-1.22494 -0.98256,-1.27234 0,-0.005 0.1002,-0.009 0.22266,-0.008 l 0.22265,8e-4 0.125,0.1824 c 0.42587,0.62143 1.16199,1.54463 1.92012,2.40811 0.86624,0.98661 1.66738,1.82952 3.47633,3.65756 0.52743,0.53299 0.95444,0.96907 0.94893,0.96907 -0.006,0 -0.11009,-0.0911 -0.23239,-0.20248 -0.36819,-0.33527 -0.57392,-0.48803 -0.57392,-0.42614 0,0.0455 0.3896,0.51621 0.64609,0.78054 0.0519,0.0535 0.0906,0.10092 0.0861,0.10544 -0.005,0.005 -0.14094,-0.13065 -0.30316,-0.30036 z" id="path109" data-index="109"></path>
  <path style="fill:#7b4cd0;fill-opacity:1;stroke-width:0.015625" d="" id="path110" data-index="110"></path>
  <path style="fill:#7b4cd0;fill-opacity:1;stroke-width:0.015625" d="" id="path111" data-index="111"></path>
  <path style="fill: rgb(123, 76, 208); fill-opacity: 1; stroke-width: 0.00390625; opacity: 1;" d="m 153.10352,252.13606 c -0.14247,-0.13971 -0.20266,-0.19643 -0.20546,-0.19362 -0.003,0.003 0.0307,0.0407 0.12281,0.14079 0.0373,0.0405 0.0669,0.0744 0.066,0.0754 -9.7e-4,9.7e-4 -0.10352,-0.10595 -0.22789,-0.2376 -0.29517,-0.31246 -0.69337,-0.73163 -0.95363,-1.00385 -0.11442,-0.11968 -0.20804,-0.2189 -0.20804,-0.22048 0,-0.002 0.0463,0.0432 0.10298,0.0994 0.0566,0.0563 0.10498,0.10232 0.10742,0.10232 0.006,0 0.006,-0.009 -1.8e-4,-0.0148 -0.003,-0.003 -0.004,-0.006 -0.003,-0.007 0.001,-0.001 0.0336,0.0318 0.072,0.0732 0.31954,0.34422 0.68826,0.72969 1.06141,1.1096 0.10084,0.10267 0.18267,0.18728 0.18185,0.18801 -8.1e-4,7.4e-4 -0.0533,-0.0495 -0.11671,-0.11166 z" id="path112" data-index="112"></path>
  <path style="fill:#7b4cd0;fill-opacity:1;stroke-width:0.00390625" d="m 155.80859,254.66335 c -0.0491,-0.0276 -0.13969,-0.0962 -0.24609,-0.18654 -0.67106,-0.56962 -2.48589,-2.36249 -3.54322,-3.50037 -0.4149,-0.44651 -0.76007,-0.84919 -0.80599,-0.94031 -0.0123,-0.0244 -0.005,-0.022 0.0516,0.0159 0.25989,0.17521 1.09004,0.95317 2.17655,2.03972 0.74612,0.74615 1.36222,1.38609 1.81273,1.88287 0.28502,0.3143 0.51423,0.58882 0.56017,0.6709 0.0127,0.0227 0.0112,0.0274 -0.006,0.0178 z" id="path113" data-index="113"></path>
  <path style="fill: rgb(123, 76, 208); fill-opacity: 1; stroke-width: 0.00390625; opacity: 1;" d="m 155.7871,254.65012 c -0.11604,-0.0715 -0.3477,-0.27192 -0.76743,-0.66379 -0.72252,-0.67458 -1.88942,-1.83716 -2.69753,-2.68754 -0.57332,-0.60331 -1.05026,-1.1464 -1.10885,-1.26266 -0.0106,-0.021 -0.006,-0.0213 0.0252,-0.002 0.16723,0.10355 0.64771,0.53624 1.34541,1.21158 0.47054,0.45546 1.19726,1.18146 1.65632,1.65469 0.089,0.0917 0.16877,0.17427 0.22657,0.23442 0.0268,0.0279 0.0683,0.071 0.092,0.0957 0.18682,0.19415 0.4921,0.52042 0.67976,0.7265 0.28936,0.31776 0.54251,0.62113 0.57941,0.69434 0.0109,0.0217 0.006,0.0215 -0.0309,-0.001 z" id="path114" data-index="114"></path>
  <path style="fill:#7b4cd0;fill-opacity:1;stroke-width:0.00390625" d="" id="path115" data-index="115"></path>
  <path style="fill: rgb(121, 40, 202); fill-opacity: 1; opacity: 1; visibility: visible;" d="m 148.62305,252.47656 v -2.55859 l 1.15918,1.6e-4 1.15918,1.5e-4 0.0684,0.0711 c 1.12383,1.16974 1.82043,1.9032 2.56061,2.69612 1.1954,1.28056 1.85005,2.02335 1.84949,2.09847 -1.1e-4,0.0151 -0.0238,0.0739 -0.0449,0.11166 -0.0123,0.0219 -0.037,0.0622 -0.0549,0.0896 l -0.0326,0.0499 h -3.33216 -3.33216 z" id="path116" data-index="116"></path>
  <path style="fill:#7b4cd0;fill-opacity:1;stroke-width:0.00390625" d="m 149.74939,248.68074 c -0.29035,-0.2983 -0.88558,-0.91632 -1.26705,-1.31558 -0.27911,-0.29212 -0.49702,-0.52214 -0.83736,-0.88389 -0.0491,-0.0522 -0.0884,-0.0958 -0.0874,-0.0968 0.001,-0.001 0.043,0.0416 0.0933,0.0949 0.56027,0.59417 1.13116,1.19121 1.95012,2.03944 0.14793,0.15323 0.26816,0.2794 0.26718,0.28038 -9.9e-4,9.9e-4 -0.0544,-0.0523 -0.11879,-0.1184 z" id="path117" data-index="117"></path>
  <path style="fill:#7b4cd0;fill-opacity:1;stroke-width:0.00390625" d="" id="path118" data-index="118"></path>
  <path style="fill:#7b4cd0;fill-opacity:1;stroke-width:0.00390625" d="m 145.04771,243.42118 c -0.36947,-0.54261 -0.60487,-1.01321 -0.73894,-1.47726 -0.10719,-0.37102 -0.1567,-0.74583 -0.16415,-1.24275 l -0.002,-0.13672 0.014,0.0566 c 0.0708,0.28704 0.1462,0.52282 0.25361,0.79297 0.22988,0.57819 0.55733,1.18106 1.01774,1.87374 l 0.0887,0.13351 -0.22004,0.001 c -0.15695,9e-4 -0.2213,0.003 -0.22445,0.006 -0.005,0.005 0.005,0.0267 0.0206,0.0495 0.004,0.006 0.007,0.0119 0.006,0.013 -0.001,0.001 -0.0239,-0.0302 -0.0507,-0.0696 z" id="path119" data-index="119"></path>
  <path style="fill:#7b4cd0;fill-opacity:1;stroke-width:0.00390625" d="m 145.87224,244.49936 c -0.14842,-0.17905 -0.31135,-0.38201 -0.41968,-0.5228 -0.0997,-0.12954 -0.1979,-0.26182 -0.1959,-0.26382 10e-4,-0.001 0.0255,0.0293 0.0542,0.0675 0.13063,0.17324 0.37427,0.48178 0.5417,0.68598 0.0438,0.0534 0.0787,0.0979 0.0777,0.099 -0.001,10e-4 -0.0272,-0.0286 -0.058,-0.0658 z" id="path120" data-index="120"></path>
  <path style="fill:#7b4cd0;fill-opacity:1;stroke-width:0.00390625" d="m 145.18424,243.61849 c -10e-4,-0.001 -0.003,-0.004 -0.003,-0.007 0,-0.002 0.002,-0.002 0.005,5.8e-4 0.003,0.003 0.004,0.006 0.003,0.007 -0.001,0.001 -0.003,8.4e-4 -0.005,-5.9e-4 z" id="path121" data-index="121"></path>
  <path style="fill:#7b4cd0;fill-opacity:1;stroke-width:0.00390625" d="" id="path122" data-index="122"></path>
  <path style="fill:#7b4cd0;fill-opacity:1;stroke-width:0.00390625" d="m 145.69336,236.75707 c 0.38342,-0.37456 0.85751,-0.70498 1.37184,-0.95613 0.10693,-0.0522 0.25274,-0.11815 0.25759,-0.11649 0.002,6e-4 -0.0411,0.0265 -0.0953,0.0574 -0.60521,0.34602 -1.15758,0.71841 -1.5542,1.04778 -0.0229,0.019 -0.0431,0.0345 -0.0449,0.0344 -0.002,-1e-4 0.0274,-0.0302 0.065,-0.067 z" id="path123" data-index="123"></path>
  <path style="fill:#7b4cd0;fill-opacity:1;stroke-width:0.00390625" d="m 154.42854,237.6021 c -0.20989,-0.18232 -0.4671,-0.39959 -0.65315,-0.55175 -1.21264,-0.99174 -2.15331,-1.57784 -3,-1.86921 l -0.0723,-0.0249 0.69135,-1e-5 0.69135,-1e-5 0.16607,0.16524 c 0.16521,0.16437 0.55689,0.55283 1.68073,1.66689 l 0.58886,0.58374 v 0.0538 c 0,0.0296 -8.1e-4,0.0538 -0.002,0.0538 -0.001,0 -0.042,-0.0349 -0.0911,-0.0776 z" id="path124" data-index="124"></path>
  <path style="fill:#7b4cd0;fill-opacity:1;stroke-width:0.00390625" d="m 155.73464,238.78453 c -0.27179,-0.2577 -0.79358,-0.73284 -1.11843,-1.01844 l -0.0947,-0.0833 v -0.0553 -0.0552 l 0.10254,0.10185 c 0.0852,0.0846 0.9455,0.93694 1.12987,1.11939 0.0301,0.0297 0.0529,0.054 0.0508,0.0539 -0.002,-1.1e-4 -0.0336,-0.0284 -0.07,-0.0629 z" id="path125" data-index="125"></path>
  <path style="fill:#7b4cd0;fill-opacity:1;stroke-width:0.00390625" d="m 160.78365,243.78072 c -0.68573,-0.68994 -1.24594,-1.25528 -1.24492,-1.2563 0.001,-0.001 0.071,0.0647 0.15539,0.14605 0.82857,0.7982 1.76884,1.68008 2.39377,2.24513 0.0591,0.0534 0.11266,0.10218 0.11907,0.10834 l 0.0116,0.0112 h -0.0941 -0.0941 z" id="path126" data-index="126"></path>
  <path style="fill:#7b4cd0;fill-opacity:1;stroke-width:0.00390625" d="m 163.06635,246.07747 c -0.42751,-0.43005 -0.83504,-0.8405 -0.90562,-0.91211 l -0.12834,-0.1302 h 0.0938 0.0938 l 0.0658,0.0594 c 0.72682,0.65565 1.29641,1.12448 1.46621,1.20685 0.0459,0.0223 0.0589,0.0251 0.0872,0.0193 0.2418,-0.0495 1.10978,-0.75518 2.43635,-1.98081 0.057,-0.0527 0.10755,-0.0991 0.1123,-0.10321 l 0.009,-0.007 v 0.0512 0.0512 l -1.27408,1.26383 c -0.70075,0.6951 -1.27514,1.26382 -1.27643,1.26382 -0.001,0 -0.35211,-0.35185 -0.77962,-0.7819 z" id="path127" data-index="127"></path>
  <path style="fill:#7b4cd0;fill-opacity:1;stroke-width:0.00390625" d="m 166.40039,244.27407 v -0.0501 l 0.0771,-0.0719 c 0.55841,-0.52083 1.18841,-1.12827 1.83477,-1.76904 l 0.26976,-0.26743 0.001,0.0231 0.001,0.0231 -0.10666,0.10614 c -0.39769,0.39574 -2.07361,2.05642 -2.07529,2.05642 -0.001,0 -0.002,-0.0226 -0.002,-0.0502 z" id="path128" data-index="128"></path>
  <path style="fill:#7b4cd0;fill-opacity:1;stroke-width:0.00390625" d="m 168.58398,242.13806 v -0.0237 l 0.30963,-0.31207 c 0.17029,-0.17164 0.53811,-0.54323 0.81737,-0.82575 0.70661,-0.71486 1.25034,-1.26345 1.64449,-1.65919 l 0.33594,-0.33729 0.0753,0.001 0.0753,10e-4 -0.0558,0.0525 c -0.24297,0.22863 -0.76888,0.7329 -1.1183,1.07229 -0.49734,0.48306 -0.79462,0.77602 -1.95801,1.9296 l -0.12598,0.12491 z" id="path129" data-index="129"></path>
  <path style="fill: rgb(123, 76, 208); fill-opacity: 1; opacity: 1;" d="m 171.70574,238.97713 c -0.008,-0.002 0.0435,-0.055 0.4668,-0.47716 0.26174,-0.26103 0.59455,-0.59056 0.73957,-0.73229 0.14502,-0.14174 0.28487,-0.27842 0.31079,-0.30376 l 0.0471,-0.0461 0.13426,0.001 0.13425,10e-4 -0.13056,0.11719 c -0.43494,0.39037 -0.85398,0.77578 -1.33146,1.22458 -0.10401,0.0978 -0.19921,0.18699 -0.21155,0.19827 l -0.0224,0.0205 -0.0638,-3.9e-4 c -0.0351,-2.1e-4 -0.0679,-0.002 -0.0729,-0.003 z" id="path130" data-index="130"></path>
  <path style="fill:#7b4cd0;fill-opacity:1;stroke-width:0.00390625" d="m 173.27539,237.41439 c 0,-0.002 0.008,-0.0103 0.0169,-0.0186 0.009,-0.008 0.0783,-0.074 0.15332,-0.14608 0.96545,-0.92787 1.54441,-1.40955 2.01774,-1.67876 l 0.0493,-0.028 0.17727,6e-5 0.17727,7e-5 -0.0137,0.008 c -0.0454,0.0281 -0.20297,0.13493 -0.28125,0.19061 -0.47193,0.33565 -1.16257,0.90362 -1.94607,1.60042 l -0.0848,0.0754 h -0.13303 c -0.0778,0 -0.13303,-0.001 -0.13303,-0.004 z" id="path131" data-index="131"></path>
  <path style="fill:#7b4cd0;fill-opacity:1;stroke-width:0.00390625" d="m 175.5293,235.53449 c 0.0231,-0.0143 0.18252,-0.091 0.23828,-0.11474 0.17006,-0.0723 0.36263,-0.1339 0.60367,-0.19318 0.55011,-0.13528 0.90857,-0.19355 1.34945,-0.21936 0.10732,-0.006 0.43079,-0.006 0.53516,-5e-5 0.53364,0.032 0.99777,0.12656 1.52246,0.31015 l 0.0557,0.0195 v 0.0836 c 0,0.046 -6.8e-4,0.0836 -0.002,0.0836 -8.4e-4,0 -0.0356,-0.0121 -0.0771,-0.0269 -0.85272,-0.30355 -1.80173,-0.40227 -2.72506,-0.28344 -0.30915,0.0398 -0.70366,0.12015 -0.82407,0.16787 -0.0615,0.0244 -0.17795,0.0845 -0.26725,0.13797 l -0.0728,0.0436 -0.17527,-2e-5 -0.17528,-1e-5 z" id="path132" data-index="132"></path>
  <path style="fill:#7b4cd0;fill-opacity:1;stroke-width:0.00390625" d="" id="path133" data-index="133"></path>
  <path style="fill: rgb(121, 40, 202); fill-opacity: 1; opacity: 1; visibility: visible;" d="m 171.43555,235.60156 v -2.55859 h 4.19922 4.19921 v 1.14495 c 0,1.08883 -3.3e-4,1.14482 -0.007,1.1423 -0.0342,-0.0132 -0.1764,-0.0613 -0.24707,-0.0835 -0.92166,-0.28934 -1.81978,-0.32615 -2.81446,-0.11535 -0.36923,0.0782 -0.67482,0.16012 -0.87339,0.23398 -0.69231,0.25752 -1.36908,0.80867 -3.16424,2.57689 l -0.22123,0.21791 h -0.5356 -0.53561 z" id="path134" data-index="134"></path>
  <path style="fill: rgb(123, 76, 208); fill-opacity: 1; opacity: 1;" d="m 173.30082,237.39122 c 0.14892,-0.14535 0.56572,-0.53857 0.74605,-0.70385 0.63964,-0.58622 1.09281,-0.93896 1.46875,-1.14323 0.0807,-0.0439 0.2215,-0.1099 0.31055,-0.14567 0.19987,-0.0803 0.43804,-0.14865 0.80182,-0.23009 0.39004,-0.0873 0.66202,-0.12851 1.02631,-0.15539 0.13214,-0.01 0.54226,-0.01 0.66601,-5e-5 0.5248,0.0413 0.91713,0.12254 1.42188,0.29456 l 0.0898,0.0306 -10e-4,0.0798 c -6.5e-4,0.0439 -0.002,0.0803 -0.002,0.0808 -5.6e-4,5.6e-4 -0.0501,-0.0158 -0.11015,-0.0363 -0.4744,-0.16217 -0.92325,-0.25645 -1.41968,-0.29817 -0.19,-0.016 -0.24329,-0.0179 -0.50196,-0.0179 -0.28631,0 -0.39953,0.005 -0.63085,0.0296 -0.31319,0.0329 -0.7582,0.11533 -0.9269,0.17176 -0.13942,0.0466 -0.3693,0.18123 -0.65898,0.38585 -0.45421,0.32083 -1.18895,0.92415 -1.93366,1.58778 l -0.10351,0.0923 -0.13277,1.7e-4 -0.13278,1.7e-4 z" id="path135" data-index="135"></path>
  <path style="fill:#7b4cd0;fill-opacity:1;stroke-width:0.00390625" d="m 182.85586,238.10913 c -0.11585,-0.21855 -0.27639,-0.46928 -0.44129,-0.68921 -0.31664,-0.42231 -0.7036,-0.80786 -1.13137,-1.12722 -0.39985,-0.29852 -0.83568,-0.54324 -1.29687,-0.72819 -0.0548,-0.022 -0.11148,-0.0441 -0.12598,-0.0493 l -0.0264,-0.009 v -0.0835 -0.0835 l 0.01,0.002 c 0.0309,0.008 0.25903,0.0993 0.39071,0.15672 0.26854,0.1172 0.65894,0.31679 0.86818,0.44387 0.49743,0.30211 0.96097,0.74806 1.34124,1.29036 0.19105,0.27246 0.37809,0.59459 0.51478,0.88659 l 0.0193,0.0411 -0.0476,-1e-4 -0.0476,-9e-5 z" id="path136" data-index="136"></path>
  <path style="fill:#7b4cd0;fill-opacity:1;stroke-width:0.00390625" d="m 183.36523,241.90801 c 0,-10e-4 0.003,-0.0159 0.008,-0.0324 0.0395,-0.15471 0.087,-0.46206 0.10751,-0.69596 0.0257,-0.29186 0.0285,-0.62688 0.008,-0.9043 -0.0528,-0.70421 -0.23431,-1.3695 -0.54394,-1.99414 -0.0314,-0.0634 -0.0578,-0.11661 -0.0586,-0.11829 -8.1e-4,-0.002 0.02,-0.003 0.0463,-0.002 l 0.0478,0.001 0.0398,0.0898 c 0.29629,0.66834 0.47845,1.36756 0.53682,2.06055 0.0157,0.18622 0.0179,0.24456 0.0178,0.47461 -4e-5,0.22246 -0.002,0.2751 -0.0158,0.43945 -0.0175,0.20633 -0.0555,0.44912 -0.10062,0.64258 l -0.009,0.0391 -0.0417,0.001 c -0.0229,6.1e-4 -0.0417,3e-5 -0.0417,-0.001 z" id="path137" data-index="137"></path>
  <path style="fill:#7b4cd0;fill-opacity:1;stroke-width:0.00390625" d="m 182.10352,243.97847 c 0,-10e-4 0.0282,-0.0363 0.0627,-0.0783 0.50743,-0.61771 0.84407,-1.11805 1.03334,-1.53577 0.0705,-0.1555 0.1028,-0.24413 0.16147,-0.4425 0.003,-0.01 0.004,-0.01 0.0446,-0.0109 0.0229,-6.1e-4 0.0417,1.2e-4 0.0417,0.002 0,0.0132 -0.0595,0.21895 -0.0879,0.30417 -0.0587,0.17594 -0.15463,0.40419 -0.21174,0.5039 -0.0935,0.16327 -0.4048,0.54352 -0.92014,1.12403 -0.0663,0.0746 -0.12128,0.13574 -0.12223,0.13574 -9.6e-4,0 -0.002,-9e-4 -0.002,-0.002 z" id="path138" data-index="138"></path>
</svg>